<svg width="40" height="40" viewBox="0 0 40 40" fill="none" xmlns="http://www.w3.org/2000/svg">
<path d="M22.5001 9.71413L29.1667 16.3808M6.66675 32.2141H13.3334L30.8334 14.7141C31.2712 14.2764 31.6184 13.7567 31.8553 13.1848C32.0922 12.6128 32.2141 11.9999 32.2141 11.3808C32.2141 10.7617 32.0922 10.1487 31.8553 9.57681C31.6184 9.00487 31.2712 8.4852 30.8334 8.04746C30.3957 7.60972 29.876 7.26249 29.3041 7.02558C28.7321 6.78868 28.1191 6.66675 27.5001 6.66675C26.881 6.66675 26.268 6.78868 25.6961 7.02558C25.1242 7.26249 24.6045 7.60972 24.1667 8.04746L6.66675 25.5475V32.2141Z" stroke="#0D0028" stroke-width="3" stroke-linecap="round" stroke-linejoin="round"/>
</svg>
