<svg width="30" height="30" viewBox="0 0 30 30" fill="none" xmlns="http://www.w3.org/2000/svg">
<path d="M12.5 11.2498H12.5125M17.5 11.2498H17.5125M15 3.74979C17.3206 3.74979 19.5462 4.67166 21.1872 6.3126C22.8281 7.95354 23.75 10.1791 23.75 12.4998V13.7498H25C25.663 13.7498 26.2989 14.0132 26.7678 14.482C27.2366 14.9509 27.5 15.5867 27.5 16.2498C27.5 16.9128 27.2366 17.5487 26.7678 18.0176C26.2989 18.4864 25.663 18.7498 25 18.7498H23.75V22.4998L26.25 26.2498H13.75C11.8087 26.2511 9.94242 25.4997 8.54371 24.1534C7.145 22.8072 6.3228 20.971 6.25 19.031V18.7485H5C4.33696 18.7485 3.70107 18.4851 3.23223 18.0163C2.76339 17.5475 2.5 16.9116 2.5 16.2485C2.5 15.5855 2.76339 14.9496 3.23223 14.4808C3.70107 14.0119 4.33696 13.7485 5 13.7485H6.25V12.4985C6.25 10.1779 7.17187 7.95229 8.81282 6.31135C10.4538 4.67041 12.6794 3.74979 15 3.74979Z" stroke="#0D0028" stroke-width="2" stroke-linecap="round" stroke-linejoin="round"/>
<path d="M13.75 17.5H16.25C16.25 17.1685 16.1183 16.8505 15.8839 16.6161C15.6495 16.3817 15.3315 16.25 15 16.25C14.6685 16.25 14.3505 16.3817 14.1161 16.6161C13.8817 16.8505 13.75 17.1685 13.75 17.5Z" stroke="#0D0028" stroke-width="2" stroke-linecap="round" stroke-linejoin="round"/>
</svg>
