<svg width="355" height="270" viewBox="0 0 355 270" fill="none" xmlns="http://www.w3.org/2000/svg">
<g clip-path="url(#clip0_624_12156)">
<mask id="mask0_624_12156" style="mask-type:luminance" maskUnits="userSpaceOnUse" x="0" y="0" width="355" height="271">
<path d="M355 0H0V270.002H355V0Z" fill="white"/>
</mask>
<g mask="url(#mask0_624_12156)">
<path d="M215.26 81.3627C215.702 81.383 216.139 81.2671 216.513 81.0309C216.886 80.7944 217.178 80.4495 217.348 80.0419C217.519 79.6344 217.56 79.1841 217.466 78.7524C217.372 78.3212 217.148 77.9289 216.823 77.6288C216.769 77.413 216.73 77.2581 216.675 77.0423C216.695 76.9949 216.714 76.9483 216.734 76.9014C218.719 72.1721 225.447 72.2047 227.416 76.9407C229.163 81.1443 231.387 85.3552 231.935 89.7996C232.176 91.7641 232.074 93.7556 231.634 95.6854C235.737 86.7432 237.868 77.0245 237.882 67.1877C237.883 64.7196 237.746 62.2528 237.471 59.7999C237.244 57.7889 236.929 55.7918 236.526 53.8096C234.326 43.0532 229.604 32.9717 222.747 24.3925C219.428 22.5835 216.744 19.8018 215.057 16.422C214.446 15.2071 214.014 13.9102 213.774 12.5717C214.149 12.6207 215.186 6.92486 214.904 6.57538C215.425 5.78451 216.359 5.39136 216.929 4.61957C219.763 0.781353 223.667 1.45153 225.705 6.66738C230.059 8.86272 230.102 12.5035 227.43 16.0051C225.73 18.2328 225.497 21.2472 224.005 23.6322C224.159 23.8284 224.318 24.0185 224.472 24.2147C227.277 27.8176 229.721 31.6865 231.77 35.7658C231.191 31.2415 232.047 25.7908 233.506 22.2773C235.167 18.274 238.281 14.9023 241.023 11.4415C244.316 7.2844 251.07 9.09865 251.65 14.3683C251.656 14.4193 251.661 14.4704 251.667 14.5213C251.259 14.7509 250.86 14.9945 250.471 15.2522C249.98 15.5793 249.601 16.0466 249.381 16.5929C249.162 17.1392 249.112 17.7391 249.24 18.3139C249.367 18.8886 249.665 19.4116 250.096 19.8141C250.526 20.2166 251.067 20.48 251.65 20.5697L251.709 20.5789C251.564 22.0452 251.308 23.4984 250.942 24.9259C254.46 38.5153 246.866 43.465 236.022 43.6871C235.783 43.8099 235.55 43.9326 235.31 44.049C237.37 49.8781 238.661 55.9497 239.153 62.111C239.43 65.7463 239.414 69.3981 239.103 73.0308L239.122 72.9021C239.907 68.8627 242.064 65.2177 245.228 62.5833C249.928 58.7267 256.567 57.3069 261.637 54.207C264.078 52.7148 267.205 54.6429 266.779 57.4694C266.772 57.5147 266.765 57.5595 266.758 57.6048C266.003 57.9125 265.267 58.2667 264.555 58.6654C264.148 58.8952 263.749 59.1385 263.359 59.3962C262.869 59.7234 262.489 60.1906 262.269 60.7369C262.05 61.2833 262 61.8834 262.128 62.4581C262.256 63.0328 262.554 63.5558 262.984 63.9583C263.414 64.3608 263.956 64.6244 264.538 64.7141L264.598 64.723C264.641 64.7294 264.678 64.7353 264.721 64.7416C263.429 67.8217 261.617 70.6567 259.363 73.1226C257.164 84.9857 247.717 86.1114 237.612 82.6569H237.606C236.497 87.4695 234.891 92.1542 232.813 96.6355H215.689C215.628 96.4455 215.573 96.2495 215.518 96.0591C217.102 96.159 218.693 96.0642 220.255 95.7772C218.985 94.2199 217.714 92.6502 216.444 91.0933C216.416 91.0641 216.389 91.0332 216.364 91.001C215.72 90.2042 215.069 89.4132 214.425 88.6163L214.425 88.615C214.39 86.1719 214.671 83.7347 215.26 81.3631L215.26 81.3627Z" fill="#E0D5F8"/>
<path d="M270.238 37.5851C267.054 25.9888 292.733 16.0447 299.477 25.3833C300.414 24.0556 303.88 23.2492 305.47 23.6565C307.06 24.0637 308.397 25.0819 309.701 26.0675C311.495 27.4441 313.354 28.8695 314.455 30.8488C315.564 32.82 315.735 35.508 314.243 37.2185C313.061 38.5788 309.571 39.4585 307.793 39.8169C306.554 40.0694 305.511 40.2731 304.614 40.4197C303.799 39.2471 303.424 37.8254 303.553 36.404C302.95 36.8108 302.444 37.346 302.072 37.9713C301.7 38.5966 301.47 39.2964 301.401 40.0206C301.376 40.3219 311.422 77.245 311.422 77.245C310.215 77.9314 308.945 78.5011 307.63 78.9475C305.029 74.9758 303.037 70.6381 301.719 66.0777C301.416 69.1268 301.454 72.2005 301.833 75.2412C302.035 76.9462 302.323 78.6403 302.697 80.3157C290.76 82.8896 272.806 82.0428 264.995 71.0951C264.993 71.0498 264.992 71.0045 264.991 70.9593C264.985 70.5272 264.829 70.1108 264.549 69.7811C264.269 69.4514 263.883 69.2292 263.457 69.1522C263.032 69.0756 262.593 69.1488 262.215 69.36C261.838 69.5712 261.546 69.9068 261.388 70.3097C261.199 70.7925 261.025 71.2106 260.869 71.5433C258.594 63.4141 261.538 54.0064 270.238 37.5851Z" fill="#0D0028"/>
<path d="M249.925 232.001V232.381C249.909 232.255 249.909 232.127 249.925 232.001Z" fill="#0D0028"/>
<path d="M261.615 166.374C261.918 166.292 262.227 166.232 262.539 166.194C262.181 166.252 261.873 166.312 261.615 166.374Z" fill="#0D0028"/>
<path d="M261.344 166.442C261.426 166.419 261.517 166.397 261.614 166.374C261.524 166.397 261.437 166.414 261.344 166.442Z" fill="#0D0028"/>
<path d="M347.71 270H303.954C303.33 269.502 302.897 268.805 302.726 268.026C302.556 267.246 302.659 266.432 303.018 265.719C304.213 262.981 301.871 260.479 301.871 260.479C301.076 259.548 300.523 258.435 300.261 257.24C300 256.045 300.038 254.803 300.371 253.627C301.53 249.582 296.987 238.165 296.987 238.165C296.987 238.165 294.538 252.907 291.538 270H249.925C249.227 268.814 248.86 267.463 248.86 266.088C248.86 264.712 249.227 263.362 249.925 262.176C252.349 258.068 249.925 257.28 249.925 257.28C249.925 257.28 247.499 252.683 249.925 249.346C252.349 246.009 249.925 232.381 249.925 232.381C250.016 232.983 250.707 231.888 251.77 229.591C253.39 226.096 255.865 219.811 258.365 212.515C260.152 207.308 261.954 201.579 263.46 195.977H263.464C263.859 194.505 264.233 193.047 264.586 191.602C265.277 188.769 265.87 186.015 266.319 183.43C267.295 177.861 267.617 173.078 266.867 169.966C266.246 167.377 264.886 165.95 262.539 166.194C263.797 165.986 265.639 165.789 267.909 165.603C268.318 165.57 268.743 165.537 269.181 165.5C286.113 164.222 322.44 163.488 322.44 163.488L333.567 183.393L347.658 208.608C347.658 208.608 347.275 242.434 347.71 270Z" fill="#0D0028"/>
<path d="M301.007 77.4545L275.372 72.0219L270.282 82.2569L253.141 92.1708C253.141 92.1708 264.19 137.301 264.127 143.649C263.967 159.763 238.156 195.888 257.652 193.109C277.147 190.33 281.108 178.689 287.366 180.53C293.011 182.19 299.903 189.574 304.517 184.293C309.131 179.011 310.756 185.11 313.674 185.321C315.061 185.421 314.226 178.652 317.714 185.532C321.203 192.411 339.702 183.15 333.433 176.887C322.99 166.455 320.868 89.555 320.868 89.555L309.243 85.9819L301.007 77.4545Z" fill="#E0D5F8"/>
<path d="M252.656 241.348C253.686 240.121 254.196 238.542 254.078 236.945C253.96 235.347 253.222 233.86 252.022 232.798C251.775 232.586 251.511 232.394 251.232 232.226L255.518 211.212L245.61 205.287L242.853 234.708C242.244 235.917 242.052 237.295 242.308 238.624C242.564 239.953 243.253 241.161 244.268 242.058C244.85 242.563 245.526 242.948 246.258 243.192C246.99 243.436 247.762 243.533 248.532 243.479C249.301 243.425 250.052 243.219 250.742 242.875C251.431 242.53 252.047 242.054 252.552 241.472C252.588 241.431 252.622 241.39 252.656 241.348Z" fill="#A0616A"/>
<path d="M283.423 130.579C283.36 129.904 282.498 129.597 281.302 129.173C280.102 128.804 278.96 128.264 277.914 127.57C275.267 125.66 276.309 123.663 277.749 120.902C278.031 120.366 278.323 119.807 278.597 119.227C279.412 117.506 278.115 110.411 274.734 98.1344C273.692 94.3549 273.696 91.6858 272.975 89.9147C272.259 88.1436 270.822 87.2705 266.907 87.0881C262.175 86.8495 257.542 88.4949 254.022 91.6638C253.927 91.7475 253.828 91.839 253.733 91.9266C253.554 92.0946 253.379 92.2664 253.207 92.4416C249.952 95.7125 248.09 100.114 248.009 104.726L247.991 105.511L247.183 143.02L244.913 175.937L241.784 221.279L244.101 221.393L253.35 221.853L254.472 221.907L257.133 210.755L260.335 197.336L261.512 192.406L265.164 177.112L266.867 169.966L267.909 165.603L268.333 163.821L270.402 155.159C270.449 154.976 275.209 136.218 280.696 133.081C282.743 131.912 283.481 131.233 283.423 130.579Z" fill="#E0D5F8"/>
<path d="M344.983 241.125C343.827 240.016 343.15 238.499 343.096 236.899C343.042 235.299 343.615 233.74 344.694 232.555C344.917 232.318 345.159 232.1 345.418 231.902L338.898 211.469L348.112 204.516L354.015 233.472C354.752 234.608 355.091 235.956 354.979 237.306C354.868 238.655 354.312 239.93 353.399 240.931C352.875 241.495 352.243 241.95 351.542 242.272C350.841 242.592 350.084 242.772 349.313 242.801C348.542 242.829 347.774 242.705 347.051 242.437C346.328 242.168 345.665 241.76 345.1 241.236C345.06 241.2 345.021 241.162 344.983 241.125Z" fill="#A0616A"/>
<path d="M349.491 196.788C349.491 196.788 342.304 171.528 344.496 168.793C346.688 166.059 340.214 165.525 343.004 160.432C345.794 155.339 341.943 154.487 341.943 154.487L339.854 142.778L336.119 114.017L336.006 113.162L334.92 104.794C334.616 102.404 333.833 100.1 332.618 98.019C331.403 95.9385 329.78 94.1239 327.847 92.6837C327.748 92.608 327.647 92.5356 327.546 92.4632C327.086 92.1323 326.616 91.8259 326.137 91.5441C322.551 89.431 318.341 88.632 314.23 89.2846C306.484 90.4899 308.894 93.3757 307.638 101.107C305.596 113.677 305.067 120.869 306.062 122.493C306.398 123.041 306.75 123.564 307.086 124.067C308.816 126.661 310.066 128.532 307.639 130.719C306.672 131.518 305.595 132.176 304.443 132.672C303.302 133.224 302.476 133.62 302.487 134.298C302.5 134.955 303.306 135.549 305.466 136.49C308.082 137.634 310.893 141.959 313.195 146.377C315.021 149.939 316.65 153.598 318.074 157.338L337.86 212.927L341.087 221.993L342.2 221.817L351.342 220.369L353.635 220.007L349.491 196.788Z" fill="#E0D5F8"/>
<path d="M290.192 71.638C301.742 71.638 311.106 62.2837 311.106 50.7448C311.106 39.2057 301.742 29.8514 290.192 29.8514C278.641 29.8514 269.277 39.2057 269.277 50.7448C269.277 62.2837 278.641 71.638 290.192 71.638Z" fill="#A0616A"/>
<path d="M258.822 39.2142C255.638 27.6179 281.318 17.6738 288.061 27.0123C288.999 25.6847 292.464 24.8783 294.054 25.2855C295.644 25.6928 296.982 26.711 298.286 27.6966C300.08 29.0732 301.939 30.4986 303.04 32.4779C304.148 34.4491 304.32 37.1371 302.828 38.8476C301.645 40.2079 298.156 41.0876 296.378 41.446C295.139 41.6985 294.095 41.9022 293.198 42.0487C292.383 40.8762 292.008 39.4545 292.138 38.0331C291.535 38.4399 291.028 38.9752 290.656 39.6004C290.284 40.2257 290.055 40.9255 289.986 41.6496C289.961 41.951 300.007 78.8743 300.007 78.8743C298.8 79.5603 297.53 80.1304 296.215 80.5764C293.614 76.6047 291.621 72.267 290.303 67.7066C290.001 70.7561 290.039 73.8294 290.418 76.8705C290.619 78.5756 290.908 80.2692 291.282 81.9451C279.345 84.5189 261.391 83.6717 253.58 72.7244C253.578 72.6791 253.577 72.6339 253.575 72.5886C253.569 72.1561 253.413 71.7397 253.134 71.41C252.854 71.0803 252.468 70.8581 252.042 70.7815C251.617 70.7045 251.177 70.7781 250.8 70.9893C250.422 71.2005 250.13 71.5361 249.973 71.939C249.784 72.4218 249.609 72.84 249.454 73.1722C247.179 65.0434 250.122 55.6353 258.822 39.2142Z" fill="#0D0028"/>
<path d="M155.099 111.41C154.657 111.43 154.22 111.314 153.846 111.078C153.473 110.841 153.181 110.496 153.01 110.089C152.84 109.681 152.799 109.231 152.893 108.799C152.987 108.368 153.211 107.976 153.536 107.676C153.59 107.46 153.629 107.305 153.684 107.089C153.665 107.042 153.645 106.995 153.625 106.948C151.64 102.219 144.912 102.252 142.943 106.988C141.196 111.191 138.972 115.402 138.424 119.847C138.183 121.811 138.285 123.803 138.725 125.732C134.622 116.79 132.491 107.072 132.477 97.2347C132.476 94.7666 132.614 92.2998 132.888 89.847C133.115 87.8359 133.43 85.8393 133.834 83.8566C136.033 73.1006 140.755 63.0188 147.612 54.4397C150.93 52.6306 153.615 49.8489 155.302 46.4692C155.913 45.2542 156.345 43.9571 156.585 42.6186C156.21 42.6677 155.173 36.9719 155.455 36.6224C154.934 35.8315 154 35.4384 153.43 34.6666C150.596 30.8284 146.692 31.4986 144.654 36.7144C140.299 38.9097 140.257 42.5504 142.929 46.052C144.629 48.2797 144.862 51.2941 146.354 53.6793C146.2 53.8756 146.041 54.0656 145.887 54.2616C143.082 57.8647 140.638 61.7335 138.588 65.8127C139.168 61.2883 138.312 55.838 136.853 52.3242C135.192 48.3211 132.078 44.9495 129.336 41.4885C126.043 37.3315 119.289 39.1457 118.709 44.4155C118.703 44.4662 118.698 44.5175 118.693 44.5682C119.1 44.798 119.499 45.0414 119.889 45.2991C120.378 45.6262 120.758 46.0934 120.978 46.6398C121.198 47.1861 121.247 47.7862 121.119 48.3609C120.992 48.9356 120.694 49.4587 120.264 49.8612C119.834 50.2636 119.292 50.5273 118.709 50.6166L118.65 50.6259C118.795 52.0923 119.051 53.5455 119.417 54.973C115.899 68.5623 123.493 73.512 134.337 73.7342C134.576 73.8569 134.809 73.9796 135.049 74.096C132.99 79.9251 131.698 85.9967 131.207 92.1585C130.928 95.7933 130.945 99.4451 131.256 103.078L131.237 102.949C130.452 98.9098 128.295 95.2652 125.131 92.6304C120.431 88.7738 113.792 87.3539 108.722 84.254C106.281 82.7618 103.154 84.6899 103.58 87.5164C103.587 87.5617 103.594 87.607 103.601 87.6519C104.356 87.9595 105.092 88.3137 105.804 88.7124C106.211 88.9422 106.61 89.1859 107 89.4432C107.49 89.7704 107.87 90.238 108.089 90.7839C108.309 91.3303 108.358 91.9304 108.231 92.5051C108.103 93.0798 107.805 93.6029 107.375 94.0053C106.945 94.4078 106.403 94.6714 105.821 94.7612L105.761 94.77C105.718 94.7764 105.681 94.7823 105.638 94.7887C106.93 97.8687 108.742 100.704 110.996 103.17C113.196 115.033 122.642 116.158 132.747 112.704H132.753C133.862 117.516 135.468 122.202 137.547 126.683H154.67C154.731 126.493 154.786 126.297 154.842 126.106C153.257 126.206 151.665 126.111 150.104 125.824C151.374 124.267 152.644 122.697 153.915 121.14C153.943 121.111 153.97 121.08 153.995 121.048C154.639 120.251 155.29 119.46 155.934 118.663L155.934 118.662C155.969 116.219 155.688 113.782 155.099 111.41L155.099 111.41Z" fill="#E0D5F8"/>
<path d="M75.2007 25.3837C74.8122 26.2884 62.8291 26.1915 62.28 26.9971C58.0488 33.2169 73.3024 59.6806 69.0708 65.9084L68.4815 66.61C69.8617 65.9744 71.1881 65.227 72.4462 64.3756C72.5594 61.8262 72.6725 59.2688 72.7936 56.7199C74.0611 58.3395 75.0842 60.136 75.8298 62.0522C76.8151 61.3586 77.6234 60.0725 81.8461 57.5426C83.5555 55.6666 85.5266 54.0462 87.6977 52.7304L75.2007 25.3837Z" fill="#0D0028"/>
<path d="M83.9024 76.358C82.5798 75.4976 81.0713 74.9644 79.5013 74.8031C77.9313 74.6415 76.3457 74.8565 74.8757 75.4299C73.4053 76.0033 72.0933 76.9187 71.0482 78.1003C70.0032 79.2814 69.2554 80.6949 68.8666 82.2226L50.6565 129.622L19.3555 111.87C19.2181 109.83 18.4373 107.885 17.1252 106.315C15.813 104.745 14.0369 103.631 12.0516 103.132C10.0663 102.633 7.9738 102.775 6.07417 103.537C4.17457 104.3 2.56544 105.643 1.4776 107.376C0.389755 109.108 -0.120917 111.141 0.0188254 113.181C0.158568 115.221 0.941549 117.165 2.25546 118.733C3.56938 120.302 5.34671 121.414 7.3326 121.911C9.31848 122.408 11.4108 122.263 13.3096 121.499C19.9013 128.527 48.4786 157.342 60.3097 146.084C70.2539 136.62 84.6047 99.9423 88.0594 87.2773C88.6127 85.2519 88.5085 83.1033 87.7612 81.1409C87.0143 79.179 85.663 77.504 83.9024 76.358Z" fill="#FFB6B6"/>
<path d="M49.7089 148.07L55.4554 174.017L97.4758 177.814L101.338 155.221L49.7089 148.07Z" fill="#FFB6B6"/>
<path d="M113.896 214.608C113.877 214.98 113.854 215.348 113.827 215.72C113.424 221.096 112.963 227.297 112.464 234.092C111.677 244.875 110.798 257.154 109.911 270H21.7731L38.8665 218.674C38.8665 218.674 45.7686 214.878 42.2546 208.501C38.7408 202.123 45.6547 207.206 45.719 198.098C45.7834 188.991 51.979 179.302 51.979 179.302L52.9961 165.512L53.5761 165.524L99.4435 166.287L100.28 166.302L101.689 178.14C110.243 188.308 114.606 201.345 113.896 214.608Z" fill="#0D0028"/>
<path d="M75.9352 63.7835L96.8509 62.7069L106.566 78.0419C106.566 78.0419 124.844 81.0948 123.577 102.612C122.31 124.129 101.338 143.01 101.338 143.01L102.234 139.94L100.677 144.384L100.877 146.88L103.001 149.522L103.219 152.256L101.338 156.58C101.582 156.972 101.712 157.425 101.712 157.887C101.713 158.349 101.583 158.801 101.339 159.193C101.095 159.586 100.746 159.901 100.331 160.105C99.9159 160.309 99.4524 160.393 98.9924 160.347L68.7708 157.321C68.0828 155.43 67.5308 153.168 64.7726 156.934L61.9258 156.659L50.0913 155.513L49.3945 152.978C48.9988 151.538 48.937 150.027 49.214 148.559C49.4915 147.091 50.0998 145.706 50.9937 144.508C49.9659 141.293 50.235 137.803 51.7443 134.783L51.8007 134.67L53.0576 133.623C53.0576 133.623 39.308 112.987 55.0923 97.4447L61.4272 86.6861L68.5153 78.047L75.9352 63.7835Z" fill="#9360FF"/>
<path d="M81.1407 54.7313C92.0944 54.7313 100.975 45.8603 100.975 34.9176C100.975 23.9749 92.0944 15.104 81.1407 15.104C70.187 15.104 61.3069 23.9749 61.3069 34.9176C61.3069 45.8603 70.187 54.7313 81.1407 54.7313Z" fill="#FFB6B6"/>
<path d="M96.2045 63.4606C94.5896 62.1123 93.4653 60.2689 93.0065 58.2168C92.6401 60.7086 92.7358 63.2465 93.2895 65.7031C92.2152 66.5098 91.1735 67.2762 90.1885 67.9702C89.4425 66.054 88.4195 64.2575 87.152 62.6375C87.0308 65.1868 86.9177 67.7442 86.805 70.2936C85.5464 71.145 84.2205 71.8924 82.8399 72.528L83.4296 71.826C87.6608 65.5982 76.7108 54.135 80.942 47.9153C82.1294 46.1726 76.7672 32.4021 72.6813 31.7809C69.0474 31.2324 69.2008 32.2811 65.68 33.0474C65.314 31.5241 64.7467 30.0564 63.9918 28.6831C64.1931 30.2133 64.1465 31.7658 63.8546 33.2814C62.6032 33.3298 61.6182 32.5331 60.2855 32.3295C51.782 31.0307 52.6462 21.8422 55.0122 18.93C57.3866 16.0258 65.2678 15.1546 68.9017 14.2107C69.233 13.888 69.984 14.0897 70.3149 13.7831C77.2793 7.41611 86.5932 6.36172 94.9751 9.18372C103.914 12.1932 109.487 18.0178 112.347 26.9971L113.167 34.1829C113.904 36.4933 112.978 47.2437 112.347 49.5852C109.896 58.6865 104.677 54.1431 96.2045 63.4606Z" fill="#0D0028"/>
<path d="M125.124 157.332L124.343 96.5813C124.302 94.0074 123.251 91.5529 121.414 89.7471C119.578 87.9413 117.105 86.9294 114.528 86.9294C113.195 86.9294 111.876 87.2007 110.651 87.7263C109.426 88.2524 108.322 89.0217 107.405 89.9883C106.488 90.9545 105.777 92.0971 105.316 93.3468C104.855 94.5961 104.654 95.9262 104.725 97.2563L107.473 160.337L107.525 198.737C105.906 199.423 104.537 200.591 103.604 202.081C102.672 203.572 102.222 205.312 102.315 207.067C102.408 208.822 103.039 210.506 104.123 211.89C105.207 213.273 106.691 214.29 108.374 214.802C110.056 215.314 111.856 215.296 113.528 214.751C115.2 214.206 116.664 213.159 117.72 211.754C118.776 210.349 119.374 208.652 119.431 206.896C119.489 205.14 119.004 203.409 118.042 201.937L125.124 157.332Z" fill="#FFB6B6"/>
<path d="M227.488 235.93C227.488 235.93 226.281 257.627 225.726 270.002H184.151C183.295 258.74 183.007 250.467 183.007 250.467L180.732 270.002H138.708L136.103 233.823L148.693 202.646C148.693 202.646 216.923 197.918 223.252 203.915C229.576 209.908 227.488 235.93 227.488 235.93Z" fill="#0D0028"/>
<path d="M190.724 53.4101C203.266 53.4101 213.433 43.2529 213.433 30.7237C213.433 18.1943 203.266 8.03735 190.724 8.03735C178.182 8.03735 168.015 18.1943 168.015 30.7237C168.015 43.2529 178.182 53.4101 190.724 53.4101Z" fill="#FFB6B6"/>
<path d="M217.194 23.352C214.861 24.4145 213.35 32.1098 211.517 30.3209C209.683 28.5318 209.806 26.2037 207.334 25.5435C205.338 25.0081 203.19 25.62 201.369 26.5851C201.044 26.7554 200.729 26.9406 200.422 27.1247C200.219 26.9894 200.017 26.8621 199.801 26.7445C198.172 25.8739 196.271 25.6603 194.49 26.1478C195.897 26.6188 197.121 27.52 197.988 28.7239C197.379 29.1318 196.761 29.5408 196.13 29.9032C190.856 32.9438 183.351 26.3322 177.799 23.8484C181.277 30.3673 179.564 33.0671 176.545 39.809L176.441 40.193C176.612 38.5032 171.378 37.2439 171.682 39.6226C171.897 41.3114 173.36 45.0651 174.18 46.5564C168.343 39.8141 164.354 31.5634 165.196 23.0521C165.379 21.2642 165.324 19.3777 166.247 17.8259C167.171 16.282 169.098 15.1987 170.802 15.7874C170.658 13.073 171.252 10.3703 172.523 7.9666C173.793 5.56288 175.691 3.54795 178.017 2.13607C180.342 0.724189 183.006 -0.0318878 185.727 -0.0517821C188.448 -0.0716766 191.123 0.645359 193.469 2.02309C195.649 3.30067 197.468 5.10756 199.465 6.66615C201.463 8.22475 203.766 9.5833 206.299 9.71195C207.906 9.78939 209.654 9.39747 211.035 10.2289C212.634 11.1936 212.908 13.2134 213.148 15.157C211.721 15.2975 210.369 15.8596 209.264 16.7715C210.74 16.6211 212.226 16.9394 213.51 17.6812C213.535 17.6923 213.558 17.7055 213.58 17.7207C214.425 20.9328 214.339 21.6448 217.194 23.352Z" fill="#0D0028"/>
<path d="M138.809 213.621C158.148 191.008 151.616 162.245 143.941 133.21L145.401 90.318C145.473 88.2139 146.05 86.158 147.084 84.3238C148.119 82.4893 149.58 80.9311 151.344 79.7795L171.087 66.8949L178.771 55.7961L199.952 57.9121L211.698 70.3211L224.699 80.2366C227.964 82.7263 230.447 86.0962 231.858 89.9494C233.269 93.8026 233.547 97.9787 232.66 101.985L220.219 158.194C220.219 158.194 225.422 187.333 222.247 190.551C219.072 193.769 210.89 190.553 217.378 194.166C225.164 198.501 232.244 197.701 228.304 201.638C224.364 205.574 229.35 211.046 229.35 211.046L138.809 213.621Z" fill="#9360FF"/>
<path d="M147.078 246.486L150.301 223.541L137.437 219.872L134.892 244.253C133.828 245.228 133.057 246.48 132.665 247.87C132.274 249.259 132.279 250.729 132.678 252.116C133.078 253.502 133.857 254.75 134.927 255.719C135.998 256.687 137.318 257.339 138.738 257.599C140.159 257.86 141.625 257.719 142.97 257.193C144.315 256.667 145.486 255.777 146.353 254.622C147.219 253.468 147.746 252.095 147.874 250.657C148.002 249.22 147.726 247.776 147.078 246.486Z" fill="#FFB6B6"/>
<path d="M171.569 71.0312C171.569 71.0312 134.952 82.937 134.078 91.6481C133.205 100.36 133.495 105.692 129.63 140.551L129.834 234.451C129.834 234.451 154.383 239.702 151.866 234.088C149.348 228.474 150.227 225.833 150.227 225.833C150.227 225.833 155.49 223.758 154.172 217.166C152.855 210.574 159.462 177.907 159.462 177.907L163.633 119.32L171.569 71.0312Z" fill="#9360FF"/>
<path d="M216.72 245.271L215.004 222.164L228.081 219.343L229.024 243.838C230.023 244.881 230.711 246.181 231.01 247.593C231.31 249.004 231.209 250.471 230.719 251.829C230.23 253.186 229.371 254.381 228.239 255.277C227.108 256.174 225.748 256.738 224.313 256.905C222.879 257.072 221.426 256.836 220.118 256.223C218.81 255.611 217.699 254.646 216.91 253.437C216.121 252.229 215.686 250.824 215.652 249.381C215.618 247.939 215.988 246.516 216.72 245.271Z" fill="#FFB6B6"/>
<path d="M203.761 68.5919C203.761 68.5919 239.521 82.8633 239.822 91.613C240.124 100.363 239.486 105.665 241.061 140.702L234.714 234.388C234.714 234.388 209.873 238.024 212.753 232.587C215.632 227.149 214.929 224.456 214.929 224.456C214.929 224.456 209.812 222.042 211.558 215.55C213.304 209.058 208.848 176.029 208.848 176.029L208.521 117.296L203.761 68.5919Z" fill="#9360FF"/>
</g>
</g>
<defs>
<clipPath id="clip0_624_12156">
<rect width="355" height="270" fill="white"/>
</clipPath>
</defs>
</svg>
