<svg width="371" height="270" viewBox="0 0 371 270" fill="none" xmlns="http://www.w3.org/2000/svg">
<g clip-path="url(#clip0_624_12458)">
<path d="M370.514 270H185.454C185.325 270 185.202 269.949 185.111 269.858C185.02 269.767 184.968 269.643 184.968 269.514C184.968 269.385 185.02 269.261 185.111 269.17C185.202 269.079 185.325 269.028 185.454 269.028H370.514C370.643 269.028 370.767 269.079 370.858 269.17C370.949 269.261 371 269.385 371 269.514C371 269.643 370.949 269.767 370.858 269.858C370.767 269.949 370.643 270 370.514 270Z" fill="#CCCCCC"/>
<path d="M345.685 66.7386H345.275C344.76 66.738 344.266 66.533 343.902 66.1685C343.538 65.8041 343.333 65.3099 343.332 64.7944V49.3558C343.333 48.8403 343.538 48.3461 343.902 47.9817C344.266 47.6172 344.76 47.4122 345.275 47.4116H345.685C346.2 47.4122 346.694 47.6172 347.059 47.9817C347.423 48.3461 347.628 48.8403 347.628 49.3558V64.7944C347.628 65.3099 347.423 65.8041 347.059 66.1685C346.694 66.533 346.2 66.738 345.685 66.7386Z" fill="#E6E6E6"/>
<path d="M210.693 47.8976H210.283C209.768 47.897 209.274 47.692 208.91 47.3275C208.546 46.9631 208.341 46.4689 208.34 45.9534V37.0168C208.341 36.5014 208.546 36.0072 208.91 35.6427C209.274 35.2782 209.768 35.0732 210.283 35.0726H210.693C211.209 35.0732 211.702 35.2782 212.067 35.6427C212.431 36.0072 212.636 36.5014 212.636 37.0168V45.9534C212.636 46.4689 212.431 46.9631 212.067 47.3275C211.702 47.692 211.209 47.897 210.693 47.8976Z" fill="#E6E6E6"/>
<path d="M210.693 69.6573H210.283C209.768 69.6567 209.274 69.4517 208.91 69.0872C208.546 68.7227 208.341 68.2286 208.34 67.7131V58.7763C208.341 58.2608 208.546 57.7667 208.91 57.4022C209.274 57.0377 209.768 56.8327 210.283 56.8321H210.693C211.209 56.8327 211.702 57.0377 212.067 57.4022C212.431 57.7667 212.636 58.2608 212.636 58.7763V67.7131C212.636 68.2286 212.431 68.7227 212.067 69.0872C211.702 69.4517 211.209 69.6567 210.693 69.6573Z" fill="#E6E6E6"/>
<path d="M326.942 269.503H229.027C224.552 269.498 220.263 267.717 217.099 264.551C213.935 261.385 212.156 257.093 212.151 252.616V17.3736C212.156 12.8963 213.935 8.60381 217.099 5.43787C220.263 2.27193 224.552 0.491088 229.027 0.486023H326.942C331.416 0.491068 335.705 2.2719 338.869 5.43784C342.033 8.60378 343.813 12.8963 343.818 17.3736V252.616C343.813 257.093 342.033 261.385 338.869 264.551C335.705 267.717 331.416 269.498 326.942 269.503Z" fill="#F2F2F2"/>
<path d="M326.942 269.989H229.027C224.424 269.984 220.011 268.152 216.756 264.895C213.501 261.638 211.67 257.222 211.665 252.616V69.9357C211.359 70.0724 211.028 70.1431 210.693 70.1434H210.283C209.639 70.1426 209.022 69.8864 208.567 69.4308C208.111 68.9752 207.855 68.3574 207.854 67.7131V58.7763C207.855 58.132 208.111 57.5143 208.567 57.0587C209.022 56.6031 209.639 56.3468 210.283 56.346H210.693C211.028 56.3463 211.359 56.417 211.665 56.5537V48.176C211.359 48.3127 211.028 48.3834 210.693 48.3837H210.283C209.639 48.3829 209.022 48.1266 208.567 47.671C208.111 47.2155 207.855 46.5977 207.854 45.9534V37.0168C207.855 36.3725 208.111 35.7548 208.567 35.2992C209.022 34.8436 209.639 34.5873 210.283 34.5866H210.693C211.028 34.5868 211.359 34.6576 211.665 34.7942V17.3736C211.67 12.7675 213.501 8.35144 216.756 5.09438C220.011 1.83732 224.424 0.0052191 229.027 0H326.942C331.545 0.00518946 335.958 1.83728 339.213 5.09434C342.468 8.35139 344.299 12.7674 344.304 17.3736V47.1332C344.609 46.9965 344.94 46.9258 345.275 46.9255H345.685C346.329 46.9263 346.946 47.1825 347.402 47.6381C347.857 48.0937 348.113 48.7115 348.114 49.3558V64.7945C348.113 65.4388 347.857 66.0565 347.402 66.5121C346.946 66.9677 346.329 67.224 345.685 67.2247H345.275C344.94 67.2245 344.609 67.1537 344.304 67.017V252.616C344.299 257.222 342.468 261.638 339.213 264.895C335.958 268.152 331.545 269.984 326.942 269.989ZM212.636 67.6906V252.616C212.641 256.964 214.37 261.133 217.442 264.208C220.515 267.283 224.681 269.012 229.027 269.017H326.942C331.287 269.012 335.453 267.283 338.526 264.208C341.599 261.133 343.327 256.964 343.332 252.616V64.7712L344.184 65.7471C344.319 65.9044 344.487 66.0309 344.675 66.1181C344.863 66.2053 345.068 66.2511 345.275 66.2526H345.685C346.072 66.2522 346.442 66.0984 346.715 65.825C346.988 65.5517 347.142 65.181 347.142 64.7944V49.3558C347.142 48.9692 346.988 48.5985 346.715 48.3252C346.442 48.0518 346.072 47.898 345.685 47.8976H345.275C345.068 47.8991 344.863 47.9449 344.675 48.0321C344.487 48.1193 344.319 48.2458 344.184 48.4031L343.332 49.379V17.3736C343.327 13.0251 341.599 8.85619 338.526 5.78136C335.453 2.70654 331.287 0.97697 326.942 0.972097H229.027C224.681 0.977001 220.515 2.70659 217.442 5.78141C214.37 8.85623 212.641 13.0252 212.636 17.3736V37.0394L211.785 36.0644C211.649 35.9071 211.482 35.7806 211.294 35.6934C211.106 35.6062 210.901 35.5602 210.693 35.5587H210.283C209.897 35.5591 209.526 35.7129 209.253 35.9862C208.98 36.2596 208.826 36.6302 208.826 37.0168V45.9534C208.826 46.34 208.98 46.7107 209.253 46.984C209.526 47.2574 209.897 47.4112 210.283 47.4116H210.693C210.901 47.41 211.106 47.3641 211.294 47.2769C211.482 47.1896 211.649 47.0631 211.785 46.9058L212.636 45.9309V58.7988L211.785 57.8239C211.649 57.6666 211.482 57.5401 211.294 57.4528C211.106 57.3656 210.901 57.3197 210.693 57.3181H210.283C209.897 57.3186 209.526 57.4723 209.253 57.7457C208.98 58.019 208.826 58.3897 208.826 58.7763V67.7131C208.826 68.0997 208.98 68.4704 209.253 68.7437C209.526 69.0171 209.897 69.1708 210.283 69.1713H210.693C210.901 69.1697 211.106 69.1238 211.294 69.0366C211.482 68.9494 211.649 68.8229 211.785 68.6656L212.636 67.6906Z" fill="#CCCCCC"/>
<path d="M262.749 66.7386H235.973C231.87 66.734 227.935 65.1006 225.034 62.1969C222.132 59.2932 220.5 55.3563 220.495 51.2499V20.1914C220.5 16.085 222.132 12.1481 225.034 9.24444C227.935 6.34078 231.87 4.70749 235.973 4.70288H262.749C266.852 4.70749 270.787 6.34078 273.688 9.24444C276.59 12.1481 278.222 16.085 278.227 20.1914V51.2499C278.222 55.3563 276.59 59.2932 273.688 62.1969C270.787 65.1006 266.852 66.734 262.749 66.7386Z" fill="white"/>
<path d="M262.749 67.2247H235.973C231.741 67.2199 227.683 65.5353 224.69 62.5404C221.698 59.5456 220.014 55.4852 220.009 51.2499V20.1914C220.014 15.9562 221.698 11.8957 224.69 8.90096C227.683 5.90619 231.741 4.22163 235.973 4.21686H262.749C266.981 4.22163 271.039 5.90619 274.032 8.90096C277.025 11.8957 278.708 15.9562 278.713 20.1914V51.2499C278.708 55.4852 277.025 59.5456 274.032 62.5404C271.039 65.5353 266.981 67.2199 262.749 67.2247ZM235.973 5.18895C231.999 5.19345 228.188 6.7755 225.377 9.58803C222.566 12.4006 220.985 16.2139 220.981 20.1914V51.2499C220.985 55.2275 222.566 59.0408 225.377 61.8534C228.188 64.666 231.998 66.2481 235.973 66.2526H262.749C266.724 66.2481 270.534 64.666 273.345 61.8534C276.156 59.0408 277.737 55.2275 277.741 51.2499V20.1914C277.737 16.2139 276.156 12.4006 273.345 9.58804C270.534 6.77551 266.724 5.19345 262.749 5.18896L235.973 5.18895Z" fill="#CCCCCC"/>
<path d="M277.984 145.894C285.212 145.894 291.071 140.031 291.071 132.798C291.071 125.566 285.212 119.703 277.984 119.703C270.757 119.703 264.898 125.566 264.898 132.798C264.898 140.031 270.757 145.894 277.984 145.894Z" fill="#9360FF"/>
<path d="M236.842 29.1845C241.351 29.1845 245.007 25.5265 245.007 21.0142C245.007 16.5018 241.351 12.8439 236.842 12.8439C232.332 12.8439 228.677 16.5018 228.677 21.0142C228.677 25.5265 232.332 29.1845 236.842 29.1845Z" fill="#0D0028"/>
<path d="M236.842 58.5977C241.351 58.5977 245.007 54.9397 245.007 50.4273C245.007 45.915 241.351 42.257 236.842 42.257C232.332 42.257 228.677 45.915 228.677 50.4273C228.677 54.9397 232.332 58.5977 236.842 58.5977Z" fill="#0D0028"/>
<path d="M261.881 43.7449C266.39 43.7449 270.045 40.087 270.045 35.5746C270.045 31.0623 266.39 27.4043 261.881 27.4043C257.371 27.4043 253.716 31.0623 253.716 35.5746C253.716 40.087 257.371 43.7449 261.881 43.7449Z" fill="#0D0028"/>
<path d="M236.842 23.8738C238.42 23.8738 239.699 22.5935 239.699 21.0142C239.699 19.4349 238.42 18.1546 236.842 18.1546C235.263 18.1546 233.984 19.4349 233.984 21.0142C233.984 22.5935 235.263 23.8738 236.842 23.8738Z" fill="#B3B3B3"/>
<path d="M236.842 24.3599C236.18 24.3599 235.534 24.1637 234.984 23.7961C234.434 23.4285 234.006 22.9059 233.753 22.2946C233.5 21.6832 233.433 21.0105 233.562 20.3615C233.691 19.7125 234.01 19.1164 234.477 18.6484C234.945 18.1805 235.541 17.8619 236.189 17.7328C236.838 17.6037 237.51 17.6699 238.121 17.9231C238.732 18.1763 239.254 18.6051 239.622 19.1553C239.989 19.7055 240.185 20.3524 240.185 21.0141C240.184 21.9011 239.832 22.7516 239.205 23.3789C238.578 24.0061 237.728 24.3589 236.842 24.3599ZM236.842 18.6406C236.373 18.6406 235.914 18.7798 235.524 19.0406C235.134 19.3014 234.83 19.6721 234.65 20.1059C234.471 20.5396 234.424 21.0169 234.515 21.4773C234.607 21.9378 234.833 22.3607 235.164 22.6927C235.496 23.0246 235.919 23.2507 236.379 23.3422C236.839 23.4338 237.316 23.3868 237.75 23.2071C238.183 23.0275 238.553 22.7232 238.814 22.3328C239.075 21.9425 239.214 21.4835 239.214 21.0141C239.213 20.3848 238.963 19.7815 238.518 19.3365C238.073 18.8915 237.471 18.6412 236.842 18.6406Z" fill="#E6E6E6"/>
<path d="M261.88 38.4342C263.459 38.4342 264.738 37.1539 264.738 35.5746C264.738 33.9953 263.459 32.715 261.88 32.715C260.302 32.715 259.023 33.9953 259.023 35.5746C259.023 37.1539 260.302 38.4342 261.88 38.4342Z" fill="#B3B3B3"/>
<path d="M261.88 38.9204C261.219 38.9204 260.573 38.7241 260.023 38.3565C259.473 37.9889 259.045 37.4664 258.792 36.855C258.538 36.2437 258.472 35.571 258.601 34.9219C258.73 34.2729 259.049 33.6768 259.516 33.2089C259.984 32.741 260.58 32.4223 261.228 32.2932C261.877 32.1641 262.549 32.2303 263.16 32.4835C263.771 32.7367 264.293 33.1656 264.66 33.7157C265.028 34.2659 265.224 34.9128 265.224 35.5745C265.223 36.4616 264.87 37.312 264.244 37.9393C263.617 38.5665 262.767 38.9194 261.88 38.9204ZM261.88 33.201C261.411 33.201 260.953 33.3402 260.563 33.601C260.173 33.8618 259.869 34.2326 259.689 34.6663C259.509 35.1 259.462 35.5773 259.554 36.0377C259.646 36.4982 259.871 36.9211 260.203 37.2531C260.535 37.585 260.958 37.8111 261.418 37.9027C261.878 37.9942 262.355 37.9472 262.788 37.7676C263.222 37.5879 263.592 37.2836 263.853 36.8933C264.113 36.5029 264.253 36.044 264.253 35.5745C264.252 34.9452 264.002 34.3419 263.557 33.8969C263.112 33.4519 262.509 33.2016 261.88 33.201Z" fill="#E6E6E6"/>
<path d="M236.842 53.287C238.42 53.287 239.699 52.0067 239.699 50.4274C239.699 48.848 238.42 47.5677 236.842 47.5677C235.263 47.5677 233.984 48.848 233.984 50.4274C233.984 52.0067 235.263 53.287 236.842 53.287Z" fill="#B3B3B3"/>
<path d="M236.842 53.7731C236.18 53.7731 235.534 53.5769 234.984 53.2092C234.434 52.8416 234.006 52.3191 233.753 51.7077C233.5 51.0964 233.433 50.4237 233.562 49.7747C233.691 49.1257 234.01 48.5295 234.477 48.0616C234.945 47.5937 235.541 47.275 236.189 47.1459C236.838 47.0168 237.51 47.083 238.121 47.3362C238.732 47.5895 239.254 48.0183 239.622 48.5685C239.989 49.1187 240.185 49.7655 240.185 50.4272C240.184 51.3143 239.832 52.1647 239.205 52.792C238.578 53.4193 237.728 53.7721 236.842 53.7731ZM236.842 48.0537C236.373 48.0537 235.914 48.1929 235.524 48.4538C235.134 48.7146 234.83 49.0853 234.65 49.519C234.471 49.9528 234.424 50.43 234.515 50.8905C234.607 51.3509 234.833 51.7739 235.164 52.1058C235.496 52.4378 235.919 52.6638 236.379 52.7554C236.839 52.847 237.316 52.7999 237.749 52.6203C238.183 52.4406 238.553 52.1363 238.814 51.746C239.075 51.3556 239.214 50.8967 239.214 50.4272C239.213 49.7979 238.963 49.1946 238.518 48.7496C238.073 48.3047 237.471 48.0544 236.842 48.0537Z" fill="#E6E6E6"/>
<path d="M151.774 88.0041L116.63 142.744C116.514 142.925 116.364 143.082 116.187 143.205C116.011 143.327 115.812 143.414 115.602 143.46C115.392 143.506 115.175 143.51 114.964 143.472C114.752 143.433 114.55 143.354 114.369 143.238L114.368 143.237L21.5055 83.5395C21.439 83.4975 21.3763 83.45 21.318 83.3973C21.0207 83.1395 20.8262 82.7831 20.7702 82.3935C20.7142 82.0039 20.8004 81.6072 21.013 81.276L56.1562 26.5355C56.2723 26.3546 56.4228 26.1983 56.5993 26.0755C56.7757 25.9528 56.9746 25.8661 57.1846 25.8203C57.3945 25.7744 57.6115 25.7705 57.823 25.8085C58.0345 25.8466 58.2364 25.926 58.4172 26.0422L58.4182 26.0428L151.281 85.7405C151.462 85.8567 151.618 86.0074 151.741 86.1839C151.863 86.3605 151.95 86.5595 151.996 86.7696C152.042 86.9797 152.046 87.1968 152.008 87.4085C151.97 87.6201 151.89 87.8222 151.774 88.0031L151.774 88.0041Z" fill="#E6E6E6"/>
<path d="M67.3159 75.0333C75.2474 75.0333 81.6771 68.5992 81.6771 60.6624C81.6771 52.7256 75.2474 46.2916 67.3159 46.2916C59.3844 46.2916 52.9547 52.7256 52.9547 60.6624C52.9547 68.5992 59.3844 75.0333 67.3159 75.0333Z" fill="#9360FF"/>
<path d="M81.2856 122.28L22.0115 84.1748C21.9367 84.1281 21.8663 84.0746 21.8013 84.0149L81.0306 53.4453C81.396 53.2527 81.8059 53.1606 82.2185 53.1784C82.6311 53.1962 83.0316 53.3232 83.3791 53.5466C83.7266 53.77 84.0085 54.0816 84.1962 54.4498C84.3839 54.8179 84.4706 55.2292 84.4474 55.6419L82.3271 100.345L82.2267 102.485L81.2856 122.28Z" fill="#847C96"/>
<path opacity="0.2" d="M81.2856 122.28L61.048 109.27L80.2529 101.216L81.6358 100.636L82.327 100.345L82.2269 102.485L81.2856 122.28Z" fill="#0D0028"/>
<path d="M114.289 143.496L63.0217 110.539L82.2267 102.485L83.6095 101.904L108.636 91.4086C110.277 90.7208 112.368 91.9566 112.674 93.6756C112.694 93.7922 112.706 93.9099 112.711 94.028L114.289 143.496Z" fill="#847C96"/>
<path d="M164.025 85.6055C164.295 84.4248 164.194 83.1898 163.738 82.0682C163.281 80.9467 162.49 79.9931 161.473 79.337L59.3838 13.7081C58.7343 13.2903 58.0089 13.0045 57.249 12.8673C56.4891 12.7301 55.7096 12.7441 54.9551 12.9085C54.2007 13.0728 53.4859 13.3844 52.8518 13.8253C52.2177 14.2662 51.6766 14.8278 51.2595 15.4781L0.930606 93.8725C0.0900364 95.1859 -0.195801 96.7793 0.135756 98.3032C0.467313 99.8272 1.38921 101.157 2.69933 102.002L104.788 167.631C106.101 168.472 107.693 168.758 109.216 168.427C110.739 168.095 112.068 167.172 112.913 165.861L163.242 87.4667C163.609 86.8966 163.874 86.2668 164.025 85.6055ZM112.331 165.487C111.586 166.644 110.413 167.458 109.069 167.751C107.725 168.044 106.32 167.791 105.162 167.049L3.07319 101.42C1.91698 100.675 1.10336 99.5009 0.810799 98.1562C0.518234 96.8114 0.770609 95.4054 1.51257 94.2466L51.8415 15.8522C52.5863 14.6952 53.7592 13.881 55.103 13.5883C56.4469 13.2955 57.8519 13.548 59.0099 14.2905L161.099 79.9194C162.255 80.6647 163.069 81.8384 163.361 83.1831C163.654 84.5279 163.402 85.9338 162.66 87.0926L112.331 165.487Z" fill="#847C96"/>
<path d="M160.666 110.473C160.255 109.334 159.503 108.349 158.513 107.653C157.523 106.956 156.343 106.581 155.132 106.58H33.7916C33.0195 106.579 32.2548 106.731 31.5414 107.027C30.8279 107.322 30.1797 107.756 29.6337 108.302C29.0877 108.848 28.6546 109.497 28.3593 110.211C28.0639 110.925 27.9121 111.69 27.9124 112.463V205.641C27.9146 207.2 28.5347 208.695 29.6368 209.798C30.7389 210.901 32.233 211.522 33.7916 211.524H155.132C156.691 211.522 158.185 210.901 159.287 209.798C160.389 208.695 161.009 207.2 161.012 205.641V112.463C161.013 111.784 160.896 111.111 160.666 110.473Z" fill="white"/>
<path d="M160.666 110.473C160.255 109.334 159.503 108.349 158.513 107.653C157.523 106.956 156.343 106.581 155.132 106.58H33.7916C33.0195 106.579 32.2548 106.731 31.5414 107.027C30.8279 107.322 30.1797 107.756 29.6337 108.302C29.0877 108.848 28.6546 109.497 28.3593 110.211C28.0639 110.925 27.9121 111.69 27.9124 112.463V205.641C27.9146 207.2 28.5347 208.695 29.6368 209.798C30.7389 210.901 32.233 211.522 33.7916 211.524H155.132C156.691 211.522 158.185 210.901 159.287 209.798C160.389 208.695 161.009 207.2 161.012 205.641V112.463C161.013 111.784 160.896 111.111 160.666 110.473ZM160.32 205.641C160.318 207.017 159.771 208.336 158.799 209.309C157.826 210.283 156.508 210.83 155.132 210.832H33.7916C32.4163 210.83 31.0978 210.283 30.1253 209.309C29.1528 208.336 28.6057 207.017 28.604 205.641V112.463C28.6057 111.087 29.1528 109.767 30.1253 108.794C31.0978 107.821 32.4163 107.273 33.7916 107.272H155.132C156.508 107.273 157.826 107.821 158.799 108.794C159.771 109.767 160.318 111.087 160.32 112.463V205.641Z" fill="#847C96"/>
<path d="M151.653 119.118V184.181C151.653 184.396 151.611 184.609 151.529 184.807C151.447 185.006 151.326 185.187 151.174 185.339C151.022 185.491 150.842 185.612 150.644 185.694C150.445 185.776 150.232 185.819 150.017 185.819H39.6416C39.563 185.819 39.4845 185.813 39.407 185.801C39.0176 185.744 38.6616 185.55 38.404 185.252C38.1464 184.955 38.0046 184.574 38.0046 184.181V119.118C38.0046 118.902 38.0468 118.69 38.129 118.491C38.2112 118.292 38.3316 118.112 38.4835 117.959C38.6354 117.807 38.8158 117.687 39.0143 117.604C39.2128 117.522 39.4256 117.48 39.6405 117.479H150.016C150.231 117.479 150.444 117.522 150.643 117.604C150.841 117.686 151.022 117.807 151.174 117.959C151.326 118.111 151.446 118.291 151.528 118.49C151.611 118.688 151.653 118.901 151.653 119.116V119.118Z" fill="#E6E6E6"/>
<path d="M65.8271 156.165C73.7586 156.165 80.1883 149.731 80.1883 141.794C80.1883 133.857 73.7586 127.423 65.8271 127.423C57.8957 127.423 51.4659 133.857 51.4659 141.794C51.4659 149.731 57.8957 156.165 65.8271 156.165Z" fill="#9360FF"/>
<path d="M110.862 186.08H40.4105C40.3223 186.081 40.2341 186.074 40.1472 186.059L73.4676 128.304C73.671 127.945 73.9661 127.645 74.3229 127.437C74.6796 127.229 75.0852 127.119 75.4982 127.119C75.9112 127.119 76.3168 127.229 76.6735 127.437C77.0303 127.645 77.3254 127.945 77.5288 128.304L99.8909 167.062L100.962 168.917L110.862 186.08Z" fill="#847C96"/>
<path opacity="0.2" d="M110.862 186.08H86.8082L98.6161 168.917L99.4661 167.681L99.8912 167.062L100.962 168.917L110.862 186.08Z" fill="#0D0028"/>
<path d="M150.089 186.08H89.1543L100.962 168.917L101.812 167.68L117.199 145.313C118.208 143.848 120.634 143.756 121.82 145.037C121.9 145.124 121.974 145.217 122.042 145.313L150.089 186.08Z" fill="#847C96"/>
<path d="M160.666 110.473C160.255 109.334 159.503 108.349 158.513 107.653C157.523 106.956 156.343 106.581 155.132 106.58H33.7916C33.0195 106.579 32.2548 106.731 31.5414 107.027C30.8279 107.322 30.1797 107.756 29.6337 108.302C29.0877 108.848 28.6546 109.497 28.3593 110.211C28.0639 110.925 27.9121 111.69 27.9124 112.463V205.641C27.9146 207.2 28.5347 208.695 29.6368 209.798C30.7389 210.901 32.233 211.522 33.7916 211.524H155.132C156.691 211.522 158.185 210.901 159.287 209.798C160.389 208.695 161.009 207.2 161.012 205.641V112.463C161.013 111.784 160.896 111.111 160.666 110.473ZM160.32 205.641C160.318 207.017 159.771 208.336 158.799 209.309C157.826 210.283 156.508 210.83 155.132 210.832H33.7916C32.4163 210.83 31.0978 210.283 30.1253 209.309C29.1528 208.336 28.6057 207.017 28.604 205.641V112.463C28.6057 111.087 29.1528 109.767 30.1253 108.794C31.0978 107.821 32.4163 107.273 33.7916 107.272H155.132C156.508 107.273 157.826 107.821 158.799 108.794C159.771 109.767 160.318 111.087 160.32 112.463V205.641Z" fill="#847C96"/>
</g>
<defs>
<clipPath id="clip0_624_12458">
<rect width="371" height="270" fill="white"/>
</clipPath>
</defs>
</svg>
