<svg width="241" height="270" viewBox="0 0 241 270" fill="none" xmlns="http://www.w3.org/2000/svg">
<g clip-path="url(#clip0_673_4517)">
<path d="M17.4207 34.8132C27.0419 34.8132 34.8414 27.02 34.8414 17.4066C34.8414 7.79319 27.0419 0 17.4207 0C7.79952 0 0 7.79319 0 17.4066C0 27.02 7.79952 34.8132 17.4207 34.8132Z" fill="#F2F2F2"/>
<path d="M12.6369 10.8751C13.9953 10.8751 15.0964 9.77478 15.0964 8.41754C15.0964 7.06029 13.9953 5.96002 12.6369 5.96002C11.2786 5.96002 10.1774 7.06029 10.1774 8.41754C10.1774 9.77478 11.2786 10.8751 12.6369 10.8751Z" fill="#2F2E41"/>
<path d="M16.5721 20.2136C20.0133 20.2136 22.8029 17.4263 22.8029 13.9879C22.8029 10.5496 20.0133 7.76221 16.5721 7.76221C13.131 7.76221 10.3414 10.5496 10.3414 13.9879C10.3414 17.4263 13.131 20.2136 16.5721 20.2136Z" fill="#2F2E41"/>
<path d="M17.0877 20.2121C19.8841 20.2121 22.1509 17.9471 22.1509 15.153C22.1509 12.359 19.8841 10.0939 17.0877 10.0939C14.2914 10.0939 12.0245 12.359 12.0245 15.153C12.0245 17.9471 14.2914 20.2121 17.0877 20.2121Z" fill="#9E616A"/>
<path d="M20.5261 9.99593C19.6389 9.45547 18.6227 9.16312 17.5836 9.14943C16.5446 9.13574 15.521 9.40122 14.6198 9.91811C13.7187 10.435 12.973 11.1843 12.4608 12.0877C11.9487 12.9911 11.6889 14.0154 11.7085 15.0535C14.2885 15.7007 16.9989 16.196 19.7502 15.2083L20.4 13.6193L20.783 15.2094C21.6209 15.5516 22.4609 15.8412 23.301 15.2061C23.3353 14.171 23.0971 13.145 22.6101 12.2307C22.1232 11.3164 21.4046 10.5458 20.5261 9.99593Z" fill="#2F2E41"/>
<path d="M10.347 1.74629C9.48347 1.37802 8.53403 1.25855 7.60609 1.40138C6.67815 1.54422 5.80873 1.94366 5.09616 2.55453C4.39929 3.18281 3.86878 3.9736 3.55193 4.85641C3.23509 5.73922 3.14172 6.68664 3.28017 7.61424C3.55906 9.50093 4.707 11.1256 5.76509 12.7129C6.82318 14.3002 7.85694 16.0395 7.85576 17.9466C7.85491 19.3202 7.30891 20.6375 6.33749 21.6094C5.36606 22.5814 4.04851 23.1288 2.67377 23.1315C4.28725 23.8255 5.9713 24.5332 7.72603 24.4509C9.48075 24.3686 11.3199 23.2415 11.6062 21.5097C11.8124 20.2619 11.1997 19.0452 10.6887 17.8881C9.85638 16.0027 9.25476 14.0239 8.89688 11.9945C8.66457 11.0341 8.67634 10.0309 8.93113 9.0762C9.18279 8.386 9.64977 7.79487 10.2632 7.38998C10.8766 6.98509 11.604 6.78788 12.3381 6.82743L12.9179 6.30624C13.0172 5.37341 12.823 4.43285 12.3621 3.61553C11.9013 2.79821 11.1969 2.1448 10.347 1.74629Z" fill="#2F2E41"/>
<path d="M30.5285 29.0529C27.5104 32.4843 23.2629 34.5921 18.7029 34.9214C14.1429 35.2507 9.63627 33.775 6.15576 30.8129L7.64997 26.647C7.98764 25.907 8.52051 25.2729 9.19144 24.8125C9.86237 24.3522 10.646 24.083 11.4584 24.0338L12.409 23.9755L14.6757 22.0222C14.6757 22.0222 20.7831 21.8043 20.6925 21.7L24.3919 23.9233L24.3888 23.908L25.8431 23.997C26.6556 24.046 27.4394 24.3151 28.1103 24.7754C28.7813 25.2358 29.3141 25.8701 29.6516 26.6101L30.5285 29.0529Z" fill="#9360FF"/>
<path d="M34.8414 86.7614C34.8353 90.2041 33.8076 93.5677 31.8883 96.4268C29.9691 99.2859 27.2444 101.512 24.0588 102.824C20.8733 104.136 17.3699 104.474 13.9918 103.797C10.6137 103.119 7.51261 101.456 5.0806 99.017C2.6486 96.5784 0.994932 93.4739 0.328743 90.0961C-0.337447 86.7184 0.0137544 83.2191 1.33793 80.0409C2.6621 76.8626 4.89979 74.148 7.768 72.2404C10.6362 70.3328 14.0061 69.3179 17.4516 69.324C19.741 69.3221 22.0082 69.7723 24.1229 70.6487C26.2376 71.5251 28.1582 72.8105 29.7741 74.4309C31.3901 76.0513 32.6697 77.9748 33.5393 80.0909C34.4089 82.207 34.8514 84.4739 34.8414 86.7614Z" fill="#F2F2F2"/>
<path d="M9.34638 81.0682C10.0667 78.7744 11.7048 76.6706 13.9702 75.8951C16.2358 75.1197 19.5531 76.3009 21.2563 77.997C24.3718 81.0994 25.1321 91.7573 22.9916 95.1253C22.5659 95.1028 21.0968 95.0862 20.6659 95.07L20.0563 93.04V95.05C19.3698 95.0288 18.678 95.0142 17.9808 95.0061C15.6431 94.9772 13.4077 94.0437 11.7445 92.4021C10.0814 90.7604 9.11998 88.5384 9.06247 86.2031C9.00668 83.9691 9.06251 81.9722 9.34638 81.0682Z" fill="#2F2E41"/>
<path d="M17.1624 88.6705C19.9043 88.6705 22.1271 86.4495 22.1271 83.7098C22.1271 80.97 19.9043 78.749 17.1624 78.749C14.4204 78.749 12.1976 80.97 12.1976 83.7098C12.1976 86.4495 14.4204 88.6705 17.1624 88.6705Z" fill="#FFB6B6"/>
<path d="M12.8776 79.353L18.594 76.493C19.7627 77.0192 20.7693 77.8482 21.5092 78.8941C22.2492 79.94 22.6956 81.1646 22.8023 82.441L22.9448 84.1464L20.551 83.5375L20.2888 81.3569L19.8823 83.3674L18.7775 83.0866L18.7881 79.7012L17.6826 83.0842L13.7371 82.1784L12.8776 79.353Z" fill="#2F2E41"/>
<path d="M30.3481 98.2495C27.33 101.681 23.0825 103.789 18.5225 104.118C13.9625 104.447 9.45585 102.972 5.97534 100.009L7.46955 95.8435C7.80722 95.1036 8.34008 94.4694 9.01101 94.0091C9.68194 93.5487 10.4656 93.2795 11.278 93.2304L12.2286 93.172L14.4953 91.2187C14.4953 91.2187 20.6027 91.0008 20.512 90.8965L24.2115 93.1199L24.2084 93.1045L25.6627 93.1935C26.4752 93.2425 27.2589 93.5116 27.9299 93.972C28.6009 94.4323 29.1337 95.0666 29.4712 95.8067L30.3481 98.2495Z" fill="#9360FF"/>
<path d="M17.4207 173.334C27.0419 173.334 34.8414 165.541 34.8414 155.927C34.8414 146.314 27.0419 138.521 17.4207 138.521C7.79952 138.521 0 146.314 0 155.927C0 165.541 7.79952 173.334 17.4207 173.334Z" fill="#F2F2F2"/>
<path d="M16.9399 158.083C20.0111 158.083 22.5008 155.596 22.5008 152.527C22.5008 149.458 20.0111 146.971 16.9399 146.971C13.8687 146.971 11.379 149.458 11.379 152.527C11.379 155.596 13.8687 158.083 16.9399 158.083Z" fill="#FFB6B6"/>
<path d="M30.4901 167.573C27.472 171.005 23.2245 173.113 18.6646 173.442C14.1046 173.771 9.59788 172.295 6.11737 169.333L7.61159 165.167C7.94926 164.428 8.48212 163.793 9.15305 163.333C9.82398 162.873 10.6077 162.604 11.4201 162.554L12.3706 162.496L14.6373 160.543C14.6373 160.543 20.7447 160.325 20.6541 160.22L24.3535 162.444L24.3505 162.428L25.8047 162.517C26.6172 162.566 27.401 162.836 28.0719 163.296C28.7429 163.756 29.2757 164.391 29.6132 165.131L30.4901 167.573Z" fill="#9360FF"/>
<path d="M22.8048 149.081C22.3349 147.401 21.2672 145.949 19.8023 144.999C18.6348 144.253 17.178 143.872 15.8553 144.267C14.5327 144.661 13.4376 145.958 13.5242 147.36C13.2792 147.295 13.021 147.301 12.779 147.376C12.5369 147.45 12.3206 147.591 12.1546 147.782C11.8227 148.174 11.592 148.641 11.4826 149.142C11.0582 150.713 11.0863 152.372 11.5637 153.928L11.5374 154.151C11.8567 154.066 12.1523 153.909 12.4018 153.693C12.6512 153.476 12.8478 153.206 12.9765 152.902C13.2809 152.312 13.456 151.658 13.7859 151.083C13.9283 150.786 14.143 150.529 14.4105 150.336C14.678 150.142 14.9897 150.019 15.3171 149.978L15.2595 150.976C15.8217 150.686 16.3839 150.397 16.9461 150.107L16.5449 151.066L18.0179 150.451C17.963 150.758 17.9082 151.066 17.8533 151.373C17.982 151.106 18.1636 150.868 18.387 150.674C18.6104 150.479 18.8711 150.332 19.1531 150.241C19.4352 150.15 19.7328 150.117 20.028 150.144C20.3232 150.171 20.6098 150.257 20.8705 150.398C21.4577 150.793 21.8809 151.388 22.0611 152.072C22.2394 152.754 22.3351 153.455 22.3462 154.16C23.1049 152.577 23.2677 150.774 22.8048 149.081Z" fill="#2F2E41"/>
<path d="M39.8017 47.1508H1.49288C1.29668 47.1511 1.10233 47.1128 0.920969 47.038C0.739607 46.9632 0.574791 46.8534 0.43594 46.7149C0.29709 46.5764 0.186928 46.4118 0.111769 46.2308C0.0366114 46.0497 -0.0020752 45.8555 -0.0020752 45.6595C-0.0020752 45.4634 0.0366114 45.2693 0.111769 45.0882C0.186928 44.9071 0.29709 44.7426 0.43594 44.6041C0.574791 44.4656 0.739607 44.3558 0.920969 44.281C1.10233 44.2062 1.29668 44.1678 1.49288 44.1681H39.8017C41.7265 44.1413 41.7457 47.1779 39.8017 47.1508Z" fill="#847C96"/>
<path d="M91.4078 54.952H1.49286C1.09701 54.952 0.717367 54.7948 0.437459 54.5152C0.157552 54.2355 0.000305176 53.8562 0.000305176 53.4606C0.000305176 53.0651 0.157552 52.6858 0.437459 52.4061C0.717367 52.1264 1.09701 51.9693 1.49286 51.9693H91.4078C93.3327 51.9424 93.3519 54.9791 91.4078 54.952Z" fill="#847C96"/>
<path d="M122.731 59.1467C128.03 59.1467 132.326 54.8547 132.326 49.5601C132.326 44.2655 128.03 39.9734 122.731 39.9734C117.432 39.9734 113.137 44.2655 113.137 49.5601C113.137 54.8547 117.432 59.1467 122.731 59.1467Z" fill="#9360FF"/>
<path d="M121.422 54.5495C121.257 54.5495 121.093 54.5109 120.945 54.4369C120.797 54.3628 120.668 54.2553 120.569 54.1228L117.951 50.6356C117.781 50.4093 117.708 50.1249 117.749 49.8449C117.789 49.565 117.938 49.3124 118.165 49.1427C118.391 48.973 118.676 48.9001 118.956 48.9401C119.236 48.9802 119.489 49.1297 119.659 49.356L121.371 51.6373L125.77 45.0453C125.847 44.9287 125.947 44.8285 126.064 44.7505C126.18 44.6725 126.311 44.6182 126.448 44.5907C126.586 44.5631 126.727 44.563 126.865 44.5901C127.002 44.6173 127.133 44.6713 127.25 44.749C127.367 44.8267 127.467 44.9266 127.545 45.043C127.623 45.1595 127.677 45.2901 127.705 45.4275C127.732 45.5649 127.732 45.7063 127.705 45.8438C127.678 45.9812 127.623 46.1119 127.546 46.2284L122.311 54.0746C122.216 54.2165 122.088 54.3336 121.939 54.4162C121.79 54.4987 121.623 54.5443 121.452 54.5491C121.442 54.5493 121.432 54.5495 121.422 54.5495Z" fill="white"/>
<path d="M39.8016 116.411H1.49286C1.09701 116.411 0.717367 116.254 0.437459 115.974C0.157552 115.695 0.000305176 115.315 0.000305176 114.92C0.000305176 114.524 0.157552 114.145 0.437459 113.865C0.717367 113.586 1.09701 113.428 1.49286 113.428H39.8016C41.7265 113.402 41.7457 116.438 39.8016 116.411Z" fill="#847C96"/>
<path d="M91.4079 124.212H1.49288C1.29668 124.213 1.10233 124.174 0.920969 124.1C0.739607 124.025 0.574791 123.915 0.435941 123.776C0.29709 123.638 0.186928 123.473 0.111769 123.292C0.0366114 123.111 -0.0020752 122.917 -0.0020752 122.721C-0.0020752 122.525 0.0366114 122.331 0.111769 122.15C0.186928 121.969 0.29709 121.804 0.435941 121.666C0.574791 121.527 0.739607 121.417 0.920969 121.343C1.10233 121.268 1.29668 121.229 1.49288 121.23H91.4079C93.3327 121.203 93.3519 124.239 91.4079 124.212Z" fill="#847C96"/>
<path d="M122.731 128.407C128.03 128.407 132.326 124.115 132.326 118.82C132.326 113.526 128.03 109.234 122.731 109.234C117.432 109.234 113.137 113.526 113.137 118.82C113.137 124.115 117.432 128.407 122.731 128.407Z" fill="#9360FF"/>
<path d="M121.422 123.81C121.257 123.81 121.093 123.771 120.945 123.697C120.797 123.623 120.668 123.516 120.569 123.383L117.951 119.896C117.867 119.784 117.806 119.656 117.771 119.521C117.736 119.385 117.729 119.244 117.749 119.105C117.768 118.967 117.815 118.833 117.887 118.713C117.958 118.592 118.053 118.487 118.165 118.403C118.277 118.319 118.404 118.258 118.54 118.223C118.676 118.188 118.817 118.181 118.956 118.2C119.095 118.22 119.228 118.267 119.349 118.339C119.469 118.41 119.575 118.504 119.659 118.616L121.371 120.898L125.77 114.306C125.927 114.071 126.171 113.907 126.448 113.852C126.726 113.797 127.014 113.854 127.249 114.011C127.485 114.167 127.648 114.411 127.704 114.688C127.759 114.966 127.702 115.253 127.546 115.489L122.311 123.335C122.216 123.477 122.088 123.594 121.939 123.677C121.79 123.759 121.623 123.805 121.452 123.809C121.442 123.81 121.432 123.81 121.422 123.81Z" fill="white"/>
<path d="M39.8016 185.671H1.49286C1.09701 185.671 0.717366 185.514 0.437459 185.235C0.157552 184.955 0.000305176 184.576 0.000305176 184.18C0.000305176 183.785 0.157552 183.405 0.437459 183.126C0.717366 182.846 1.09701 182.689 1.49286 182.689H39.8016C41.7265 182.662 41.7457 185.699 39.8016 185.671Z" fill="#847C96"/>
<path d="M91.4078 193.473H1.49286C1.09701 193.473 0.717367 193.315 0.437459 193.036C0.157552 192.756 0.000305176 192.377 0.000305176 191.981C0.000305176 191.586 0.157552 191.206 0.437459 190.927C0.717367 190.647 1.09701 190.49 1.49286 190.49H91.4078C93.3327 190.463 93.3519 193.5 91.4078 193.473Z" fill="#847C96"/>
<path d="M122.731 197.667C128.03 197.667 132.326 193.375 132.326 188.081C132.326 182.786 128.03 178.494 122.731 178.494C117.432 178.494 113.137 182.786 113.137 188.081C113.137 193.375 117.432 197.667 122.731 197.667Z" fill="#9360FF"/>
<path d="M121.422 193.07C121.257 193.07 121.093 193.031 120.945 192.957C120.797 192.883 120.668 192.776 120.569 192.643L117.951 189.156C117.867 189.044 117.806 188.917 117.771 188.781C117.736 188.645 117.729 188.504 117.749 188.366C117.768 188.227 117.815 188.094 117.887 187.973C117.958 187.853 118.053 187.747 118.165 187.663C118.277 187.579 118.404 187.518 118.54 187.483C118.676 187.449 118.817 187.441 118.956 187.461C119.095 187.481 119.228 187.527 119.349 187.599C119.469 187.67 119.575 187.765 119.659 187.877L121.371 190.158L125.77 183.566C125.847 183.449 125.947 183.349 126.064 183.271C126.18 183.193 126.311 183.139 126.448 183.111C126.586 183.084 126.727 183.084 126.865 183.111C127.002 183.138 127.133 183.192 127.25 183.27C127.367 183.347 127.467 183.447 127.545 183.564C127.623 183.68 127.677 183.811 127.705 183.948C127.732 184.085 127.732 184.227 127.705 184.364C127.678 184.502 127.623 184.632 127.546 184.749L122.311 192.595C122.216 192.737 122.088 192.854 121.939 192.937C121.79 193.019 121.623 193.065 121.452 193.07C121.442 193.07 121.432 193.07 121.422 193.07Z" fill="white"/>
<path d="M161.859 155.156H186.999L180.811 136.993L163.793 137.379L161.859 155.156Z" fill="#9E616A"/>
<path d="M182.147 259.831H177.185L174.825 240.708L182.148 240.708L182.147 259.831Z" fill="#9E616A"/>
<path d="M184.816 269.245H181.295L180.667 265.924L179.057 269.245H169.719C169.272 269.245 168.836 269.102 168.475 268.837C168.115 268.572 167.848 268.199 167.715 267.772C167.582 267.345 167.589 266.886 167.735 266.464C167.881 266.041 168.158 265.676 168.527 265.422L175.984 260.276V256.918L183.827 257.385L184.816 269.245Z" fill="#2F2E41"/>
<path d="M173.638 259.831H168.676L166.316 240.708L173.639 240.708L173.638 259.831Z" fill="#9E616A"/>
<path d="M176.307 269.245H172.786L172.158 265.924L170.548 269.245H161.21C160.763 269.245 160.327 269.102 159.966 268.837C159.606 268.572 159.339 268.199 159.206 267.772C159.073 267.345 159.08 266.886 159.226 266.464C159.372 266.041 159.649 265.676 160.017 265.422L167.475 260.276V256.918L175.318 257.385L176.307 269.245Z" fill="#2F2E41"/>
<path d="M161.933 151.678L186.999 151.292C186.999 151.292 195.422 169.029 192.026 179.987L182.188 212.166L174.101 253.469L166.662 251.214L164.579 248.082L166.113 242.497L165.479 239.37L163.019 210.807V210.421L161.859 198.44C156.636 180.607 158.025 169.844 161.933 151.678Z" fill="#2F2E41"/>
<path d="M179.552 210.247L184.159 243.602L183.131 245.202L184.159 247.833L182.894 254.069L175.558 255.491L168.604 225.675L179.552 210.247Z" fill="#2F2E41"/>
<path d="M162.608 146.498C162.602 146.498 162.596 146.499 162.59 146.499C162.383 146.5 162.181 146.434 162.013 146.312C161.846 146.189 161.723 146.016 161.661 145.819C160.447 141.985 159.136 137.279 159.788 136.627C160.072 136.384 160.403 136.203 160.761 136.096C161.542 135.801 162.158 135.567 161.675 134.12C161.33 133.085 162.41 131.937 161.866 131.235C161.172 130.34 161.336 129.482 161.866 128.916C162.365 128.385 160.929 125.92 161.73 123.392C161.755 123.312 161.763 123.227 161.753 123.143C161.742 123.06 161.713 122.979 161.669 122.908C160.663 121.298 157.733 117.672 161.305 114.131C164.587 110.878 165.99 104.52 166.926 104.054C167.059 103.987 167.162 103.872 167.213 103.731L168.451 100.339C168.52 100.152 168.645 99.99 168.809 99.8755C168.973 99.761 169.168 99.6994 169.368 99.699H178.97C179.116 99.6986 179.261 99.7313 179.393 99.7947C179.525 99.858 179.641 99.9503 179.732 100.065L184.253 105.712C184.309 105.782 184.356 105.859 184.39 105.942C184.989 107.371 190.162 120.04 187.556 124.875L187.078 125.761C184.779 130.015 183.828 131.776 184.815 132.763C185.725 133.672 185.337 134.346 185.106 134.748C185.034 134.873 184.952 135.014 184.966 135.077C185.233 136.279 184.557 136.452 184.232 136.536C184.21 136.542 184.185 136.548 184.161 136.555C184.241 136.663 184.331 136.763 184.429 136.856C184.545 136.951 184.639 137.07 184.706 137.204C184.773 137.339 184.81 137.486 184.816 137.636C184.786 137.803 184.72 137.962 184.624 138.102C184.528 138.242 184.404 138.361 184.259 138.449C184.11 138.574 183.94 138.715 183.937 138.81C183.935 138.866 184 138.937 184.039 138.974C184.207 139.135 184.436 139.32 184.679 139.516C185.381 140.085 186.178 140.729 186.21 141.347C186.216 141.454 186.198 141.562 186.157 141.662C186.116 141.761 186.055 141.851 185.976 141.925L184.168 143.73C184.038 143.958 184.635 145.373 184.904 145.69L185.029 145.837L184.938 145.914C185.017 146.043 185.064 146.19 185.074 146.34C185.085 146.491 185.058 146.643 184.998 146.781C184.924 146.938 184.806 147.07 184.658 147.161C184.511 147.253 184.34 147.299 184.166 147.294L162.608 146.498Z" fill="#3F3D56"/>
<path d="M131.119 120.197C131.858 120.957 132.866 121.396 133.926 121.42C134.986 121.444 136.013 121.05 136.785 120.324C136.956 120.164 137.112 119.988 137.251 119.8L150.871 123.925L148.781 116.911L136.168 114.069C135.265 113.503 134.176 113.314 133.135 113.544C132.095 113.774 131.187 114.403 130.607 115.297C130.123 116.05 129.91 116.946 130.003 117.836C130.096 118.727 130.49 119.559 131.119 120.197Z" fill="#9E616A"/>
<path d="M139.67 121.66L141.679 114.904L148.604 114.866L150.031 116.758L152.333 115.934L159.645 117.794L167.371 105.322C167.759 104.695 168.28 104.161 168.899 103.759C169.517 103.357 170.216 103.096 170.947 102.995C171.677 102.894 172.421 102.955 173.126 103.174C173.83 103.393 174.477 103.764 175.021 104.261C175.866 105.027 176.423 106.058 176.599 107.184C176.775 108.31 176.56 109.461 175.989 110.448L165.144 129.388L139.67 121.66Z" fill="#3F3D56"/>
<path d="M149.527 152.473C150.587 152.509 151.618 152.128 152.399 151.411C153.18 150.694 153.647 149.699 153.7 148.641C153.712 148.407 153.702 148.173 153.672 147.94L166.352 141.481L159.98 137.873L148.916 144.559C147.873 144.776 146.957 145.394 146.366 146.281C145.775 147.167 145.557 148.25 145.759 149.295C145.933 150.173 146.401 150.966 147.086 151.544C147.77 152.122 148.631 152.449 149.527 152.473Z" fill="#9E616A"/>
<path d="M156.706 147.606L153.468 141.345L158.434 136.521L160.775 136.897L161.862 134.709L168.424 130.986L165.341 116.645C165.187 115.925 165.193 115.179 165.359 114.461C165.526 113.743 165.849 113.07 166.305 112.491C166.762 111.912 167.341 111.441 168 111.111C168.66 110.781 169.384 110.601 170.121 110.583C171.261 110.549 172.378 110.907 173.286 111.597C174.193 112.286 174.837 113.266 175.11 114.372L180.43 135.535L156.706 147.606Z" fill="#3F3D56"/>
<path d="M174.648 97.9021C179.74 97.9021 183.868 93.7776 183.868 88.6897C183.868 83.6018 179.74 79.4773 174.648 79.4773C169.556 79.4773 165.428 83.6018 165.428 88.6897C165.428 93.7776 169.556 97.9021 174.648 97.9021Z" fill="#9E616A"/>
<path d="M176.039 77.4778L177.158 77.7753L177.538 77.8764L181.794 79.0085C185.568 80.0121 187.71 84.2639 186.581 88.5053C188.667 92.119 186.859 95.4704 183.574 98.7221C179.362 98.1446 175.09 98.1497 170.88 98.7374L170.953 96.3023L169.089 99.0393C168.025 99.2449 166.958 99.4952 165.887 99.7904C168.321 95.0018 170.115 90.0558 170.421 85.9244L168.471 85.4059L169.039 83.2744L167.809 85.2299L164.275 84.29C164.6 83.071 165.162 81.9277 165.929 80.9256C166.696 79.9235 167.653 79.0821 168.745 78.4496C169.838 77.817 171.044 77.4056 172.295 77.2389C173.547 77.0721 174.819 77.1533 176.039 77.4778Z" fill="#2F2E41"/>
<path d="M183.897 83.1719C186.295 83.1719 188.238 81.2296 188.238 78.8335C188.238 76.4375 186.295 74.4952 183.897 74.4952C181.499 74.4952 179.555 76.4375 179.555 78.8335C179.555 81.2296 181.499 83.1719 183.897 83.1719Z" fill="#2F2E41"/>
<path d="M228.721 268.381C231.803 261.166 233.977 253.313 232.948 245.541C232.595 242.905 231.828 240.343 230.674 237.947C229.744 235.994 228.544 234.182 227.108 232.563C226.611 231.993 225.93 231.614 225.183 231.494C224.436 231.374 223.67 231.52 223.02 231.906C222.919 231.964 222.818 232.026 222.726 232.092C222.222 232.446 221.825 232.931 221.577 233.495C221.529 233.602 221.489 233.714 221.457 233.827C221.315 234.302 221.277 234.801 221.345 235.292C221.887 239.292 221.769 243.353 220.997 247.315C220.799 248.323 220.558 249.323 220.273 250.314C219.634 249.515 218.953 248.751 218.235 248.022C216.373 246.137 214.226 244.556 211.873 243.338H211.869C211.857 243.33 211.849 243.326 211.838 243.319C208.983 241.866 205.178 242.468 202.954 243.458C202.807 243.52 202.667 243.589 202.532 243.655C201.372 244.25 200.795 244.934 201.29 245.382C201.403 245.479 201.515 245.579 201.619 245.68C204.991 248.794 207.753 252.508 209.765 256.632V256.636C210.564 258.278 211.238 259.978 211.78 261.722C212.526 264.13 213.145 266.8 214.603 268.763C214.752 268.97 214.914 269.167 215.087 269.355L228.113 269.25C228.144 269.235 228.171 269.223 228.202 269.208L228.721 269.227C228.701 269.134 228.678 269.042 228.655 268.949V268.941C228.643 268.891 228.628 268.837 228.616 268.79C228.605 268.752 228.597 268.717 228.589 268.686C228.612 268.628 228.636 268.574 228.663 268.516C228.682 268.47 228.701 268.427 228.721 268.381Z" fill="#F0F0F0"/>
<path d="M228.655 268.941C228.651 268.97 228.639 268.997 228.622 269.021C228.604 269.044 228.581 269.062 228.554 269.074C228.527 269.086 228.498 269.09 228.469 269.087C228.44 269.084 228.412 269.074 228.388 269.057C227.853 268.669 227.265 268.358 226.644 268.133C226.64 268.13 226.64 268.133 226.64 268.133C225.855 267.852 225.047 267.637 224.226 267.492C224.218 267.492 224.215 267.488 224.207 267.488C223.874 267.422 223.542 267.364 223.209 267.303C221.592 267.005 219.948 266.646 218.548 265.726C217.979 265.373 217.49 264.904 217.115 264.349C216.739 263.794 216.486 263.166 216.371 262.507C216.166 261.212 216.425 259.909 216.533 258.619C216.541 258.526 216.549 258.429 216.553 258.337C216.56 258.217 216.564 258.101 216.564 257.985C216.604 256.813 216.368 255.648 215.876 254.584C215.243 253.31 214.413 252.144 213.416 251.129C212.901 250.576 212.365 250.044 211.807 249.533H211.803C211.78 249.51 211.76 249.49 211.737 249.471C211.737 249.467 211.733 249.463 211.729 249.46C209.343 247.293 206.636 245.507 203.704 244.165C203.599 244.119 203.491 244.068 203.383 244.022C203.1 243.894 202.818 243.775 202.532 243.655C202.667 243.589 202.807 243.52 202.953 243.458C206.223 244.84 209.241 246.754 211.884 249.123C211.973 249.201 212.062 249.282 212.147 249.363C212.816 249.981 213.453 250.629 214.058 251.307C215.025 252.348 215.808 253.544 216.375 254.847C216.79 255.901 216.973 257.032 216.912 258.163C216.905 258.379 216.889 258.596 216.87 258.816C216.75 260.118 216.483 261.463 216.781 262.765C217.121 264.249 218.274 265.285 219.612 265.919C220.498 266.314 221.427 266.602 222.381 266.777C224.354 267.19 226.392 267.391 228.117 268.45H228.121C228.148 268.47 228.175 268.485 228.198 268.501C228.202 268.501 228.202 268.501 228.202 268.504C228.327 268.578 228.447 268.66 228.562 268.748C228.57 268.752 228.577 268.76 228.585 268.763C228.596 268.771 228.607 268.78 228.616 268.79C228.634 268.811 228.647 268.835 228.654 268.861C228.66 268.887 228.661 268.915 228.655 268.941Z" fill="white"/>
<path d="M212.046 249.496C212.748 248.625 213.119 247.532 213.09 246.414C213.061 245.295 212.636 244.224 211.889 243.39C211.737 243.222 211.469 243.449 211.62 243.618C212.317 244.393 212.713 245.391 212.738 246.433C212.763 247.474 212.414 248.49 211.754 249.297C211.611 249.473 211.903 249.67 212.046 249.496Z" fill="white"/>
<path d="M216.676 257.973C214.403 258.237 212.113 257.635 210.264 256.287C210.081 256.154 209.883 256.445 210.065 256.578C211.992 257.977 214.377 258.599 216.742 258.319C216.967 258.292 216.9 257.946 216.676 257.973Z" fill="white"/>
<path d="M203.727 244.123C203.719 244.138 203.712 244.15 203.704 244.165C203.491 244.556 203.193 244.895 202.833 245.157C202.472 245.419 202.057 245.598 201.619 245.68C201.515 245.58 201.403 245.479 201.29 245.382C201.308 245.371 201.328 245.365 201.348 245.363C201.77 245.317 202.174 245.171 202.528 244.938C202.881 244.705 203.174 244.391 203.383 244.022C203.402 243.991 203.422 243.956 203.437 243.925C203.45 243.906 203.466 243.89 203.486 243.877C203.505 243.865 203.527 243.856 203.549 243.851C203.572 243.847 203.595 243.847 203.618 243.852C203.64 243.857 203.662 243.866 203.681 243.879C203.718 243.906 203.743 243.946 203.752 243.992C203.761 244.037 203.752 244.084 203.727 244.123Z" fill="white"/>
<path d="M228.721 268.381C228.722 268.406 228.718 268.432 228.708 268.455C228.697 268.479 228.682 268.5 228.663 268.516C228.632 268.539 228.596 268.554 228.558 268.559C228.52 268.567 228.48 268.559 228.446 268.538C228.413 268.518 228.389 268.485 228.38 268.446C227.846 266.653 226.539 265.278 225.301 263.929C224.188 262.719 223.093 261.444 222.532 259.871C222.289 259.246 222.182 258.577 222.216 257.907C222.251 257.238 222.427 256.583 222.733 255.987C222.926 255.63 223.15 255.291 223.402 254.974C223.955 254.271 224.613 253.645 225.205 252.98C225.267 252.911 225.329 252.837 225.387 252.768C225.468 252.679 225.541 252.586 225.611 252.493C226.349 251.582 226.861 250.509 227.108 249.363C227.372 247.965 227.412 246.534 227.228 245.123C227.15 244.374 227.043 243.629 226.907 242.89C226.899 242.855 226.895 242.824 226.887 242.793C226.29 239.622 225.205 236.562 223.669 233.723C223.611 233.618 223.557 233.514 223.499 233.414C223.252 232.965 222.996 232.525 222.726 232.092C222.818 232.026 222.919 231.964 223.019 231.906C223.906 233.341 224.679 234.844 225.329 236.401C226.169 238.398 226.8 240.477 227.212 242.604C227.239 242.72 227.259 242.839 227.278 242.955C227.44 243.848 227.56 244.752 227.634 245.653C227.779 247.066 227.682 248.493 227.348 249.873C227.044 250.968 226.507 251.985 225.773 252.853C225.642 253.019 225.503 253.181 225.356 253.34C224.768 253.981 224.118 254.603 223.588 255.303C223.317 255.654 223.088 256.036 222.903 256.439C222.281 257.83 222.575 259.353 223.263 260.659C224.509 263.036 226.883 264.655 228.148 266.986C228.382 267.415 228.571 267.867 228.713 268.334C228.717 268.349 228.72 268.365 228.721 268.381Z" fill="white"/>
<path d="M227.118 242.996C228.204 242.724 229.158 242.074 229.809 241.164C230.46 240.254 230.766 239.142 230.672 238.027C230.652 237.801 230.301 237.821 230.32 238.047C230.409 239.085 230.124 240.121 229.516 240.967C228.908 241.814 228.018 242.415 227.005 242.663C226.785 242.717 226.899 243.05 227.118 242.996Z" fill="white"/>
<path d="M225.707 252.551C223.732 251.394 222.267 249.536 221.603 247.347C221.537 247.13 221.203 247.243 221.269 247.46C221.965 249.736 223.494 251.667 225.551 252.866C225.747 252.98 225.902 252.664 225.707 252.551Z" fill="white"/>
<path d="M223.712 233.703C223.696 233.711 223.685 233.715 223.669 233.723C222.973 234.04 222.18 234.078 221.457 233.827C221.489 233.714 221.529 233.602 221.577 233.495C222.205 233.71 222.891 233.681 223.499 233.414C223.534 233.402 223.565 233.387 223.6 233.371C223.644 233.356 223.692 233.359 223.734 233.379C223.776 233.399 223.808 233.435 223.824 233.479C223.837 233.524 223.832 233.572 223.811 233.613C223.791 233.655 223.755 233.687 223.712 233.703Z" fill="white"/>
<path d="M240.539 270H105.946C105.885 270 105.825 269.988 105.769 269.965C105.713 269.942 105.662 269.908 105.619 269.866C105.576 269.823 105.542 269.772 105.519 269.716C105.496 269.66 105.484 269.6 105.484 269.54C105.484 269.479 105.496 269.419 105.519 269.363C105.542 269.308 105.576 269.257 105.619 269.214C105.662 269.171 105.713 269.137 105.769 269.114C105.825 269.091 105.885 269.08 105.946 269.08H240.539C240.6 269.08 240.66 269.091 240.716 269.114C240.772 269.137 240.823 269.171 240.866 269.214C240.909 269.257 240.943 269.308 240.966 269.363C240.989 269.419 241.001 269.479 241.001 269.54C241.001 269.6 240.989 269.66 240.966 269.716C240.943 269.772 240.909 269.823 240.866 269.866C240.823 269.908 240.772 269.942 240.716 269.965C240.66 269.988 240.6 270 240.539 270Z" fill="#CCCCCC"/>
</g>
<defs>
<clipPath id="clip0_673_4517">
<rect width="241" height="270" fill="white"/>
</clipPath>
</defs>
</svg>
