<svg width="260" height="270" viewBox="0 0 260 270" fill="none" xmlns="http://www.w3.org/2000/svg">
<g clip-path="url(#clip0_673_4620)">
<path d="M259.998 265.773C259.98 266.182 259.851 266.466 259.717 266.466H135.344C135.214 266.466 135.092 266.19 135.072 265.795C135.045 265.288 135.172 264.853 135.332 264.853H259.737C259.895 264.853 260.02 265.274 259.998 265.773Z" fill="#F2F2F2"/>
<path d="M45.6432 10.1145C46.801 10.1145 47.7395 9.17116 47.7395 8.00746C47.7395 6.84376 46.801 5.90039 45.6432 5.90039C44.4855 5.90039 43.5469 6.84376 43.5469 8.00746C43.5469 9.17116 44.4855 10.1145 45.6432 10.1145Z" fill="white"/>
<path d="M53.601 10.1145C54.7588 10.1145 55.6973 9.17116 55.6973 8.00746C55.6973 6.84376 54.7588 5.90039 53.601 5.90039C52.4433 5.90039 51.5047 6.84376 51.5047 8.00746C51.5047 9.17116 52.4433 10.1145 53.601 10.1145Z" fill="white"/>
<path d="M61.5571 10.1145C62.7149 10.1145 63.6534 9.17116 63.6534 8.00746C63.6534 6.84376 62.7149 5.90039 61.5571 5.90039C60.3994 5.90039 59.4608 6.84376 59.4608 8.00746C59.4608 9.17116 60.3994 10.1145 61.5571 10.1145Z" fill="white"/>
<path d="M207.074 132.597L204.666 149.807L194.501 168.093C191.556 170.782 194.232 177.236 194.232 177.236L196.907 175.355L197.442 172.128C197.442 172.128 209.214 158.682 212.157 155.455C215.1 152.227 216.17 134.48 216.17 134.48L207.074 132.597Z" fill="#9F616A"/>
<path d="M215.935 249.307C215.935 249.307 215.4 255.492 215.667 257.105C215.933 258.718 223.961 256.835 223.961 256.835C222.623 254.146 221.82 246.079 221.82 246.079L215.935 249.307Z" fill="#9F616A"/>
<path d="M176.072 250.921C176.072 250.921 175.269 259.527 175.537 261.139C175.804 262.751 183.831 260.869 183.831 260.869C182.493 258.18 181.69 250.113 181.69 250.113L176.072 250.921Z" fill="#9F616A"/>
<path d="M192.467 112.971C197.841 112.971 202.198 108.592 202.198 103.19C202.198 97.7887 197.841 93.4098 192.467 93.4098C187.093 93.4098 182.736 97.7887 182.736 103.19C182.736 108.592 187.093 112.971 192.467 112.971Z" fill="#9F616A"/>
<path d="M190.788 112.434C192.393 114.585 191.591 118.35 191.591 118.35C191.591 118.35 207.91 137.445 210.853 137.445C213.797 137.445 213.261 123.999 213.261 123.999C213.261 123.999 208.979 118.891 206.572 117.813C204.164 116.735 199.883 105.174 199.883 105.174C199.883 105.174 189.182 110.282 190.788 112.434Z" fill="#9F616A"/>
<path d="M179.818 149.005L169.345 166.687C167.434 169.848 170.991 185.845 170.991 185.845L172.595 219.996L175.27 254.407V258.172L184.098 257.902L187.043 221.07L191.323 193.373L198.279 214.616L209.783 240.7C210.765 243.917 211.972 247.06 213.395 250.107L215.536 253.871L223.561 252.929L211.389 211.66L208.981 184.77C208.713 169.711 203.899 161.375 203.899 161.375V158.148L179.818 149.005Z" fill="#090814"/>
<path d="M216.47 255.761C216.47 255.761 215.132 253.61 215.132 254.417C215.132 255.224 211.654 257.377 211.654 257.377C211.654 257.377 208.176 256.839 207.64 260.872C207.105 264.906 212.457 265.713 213.794 265.443C215.132 265.173 218.61 265.713 218.61 265.713C220.916 266.054 223.26 266.054 225.566 265.713C229.847 265.175 226.101 257.915 225.566 256.57C225.031 255.225 222.355 256.3 222.355 256.3C217.54 257.643 216.47 255.761 216.47 255.761Z" fill="#090814"/>
<path d="M176.34 259.793C176.34 259.793 175.002 257.642 175.002 258.448C175.002 259.255 171.524 261.408 171.524 261.408C171.524 261.408 168.046 260.87 167.511 264.904C166.976 268.938 172.327 269.745 173.664 269.475C175.002 269.206 178.48 269.745 178.48 269.745C180.786 270.087 183.13 270.087 185.436 269.745C189.717 269.207 185.971 261.947 185.436 260.602C184.901 259.257 182.225 260.332 182.225 260.332C177.41 261.675 176.34 259.793 176.34 259.793Z" fill="#090814"/>
<path d="M194.8 118.081C188.112 111.089 180.889 128.568 180.889 128.568C180.889 128.568 178.481 135.022 180.353 138.518C182.226 142.014 178.481 149.812 178.481 149.812C187.643 157.651 196.773 164.897 205.234 159.762C204.164 153.308 207.642 150.081 210.05 143.896C212.458 137.712 217.006 139.056 217.006 139.056C217.006 139.056 216.737 132.064 215.936 126.417C215.134 120.77 207.91 118.65 207.91 118.65C206.6 121.015 201.489 125.072 194.8 118.081Z" fill="#9360FF"/>
<path d="M183.027 129.374L180.619 146.584L170.454 164.87C167.509 167.559 170.185 174.013 170.185 174.013L172.86 172.132L173.395 168.905C173.395 168.905 185.167 155.459 188.109 152.232C191.052 149.005 192.123 131.257 192.123 131.257L183.027 129.374Z" fill="#9F616A"/>
<path d="M181.423 132.064L192.659 133.408C192.659 133.408 193.462 120.233 191.765 116.938C190.068 113.643 183.831 117.272 183.831 117.272C182.226 117.543 181.423 132.064 181.423 132.064Z" fill="#9360FF"/>
<path d="M181.573 97.5284C188.77 101.143 184.618 111.014 185.469 115.156C186.86 121.939 207.374 118.492 207.374 118.492C209.87 118.041 211.391 90.1299 197.722 90.3749C190.831 90.5004 186.064 92.6983 181.573 97.5284Z" fill="#090814"/>
<path d="M113.45 118.837L13.8657 118.87C11.4331 118.88 9.04101 118.244 6.93158 117.026C4.82216 115.808 3.07025 114.052 1.85317 111.935C0.63609 109.818 -0.00297399 107.415 0.00065625 104.97C0.00428649 102.525 0.650483 100.124 1.87385 98.0103L51.6342 6.95906C52.8481 4.84401 54.5945 3.08741 56.6979 1.8658C58.8013 0.644185 61.1876 0.00061184 63.6169 -0.000243287C66.0462 -0.00109842 68.4329 0.640794 70.5372 1.86092C72.6414 3.08105 74.3891 4.83643 75.6045 6.95062L125.435 97.9769C126.648 100.091 127.286 102.489 127.285 104.93C127.284 107.37 126.644 109.768 125.43 111.881C124.216 113.995 122.47 115.75 120.367 116.971C118.264 118.191 115.879 118.834 113.451 118.835L113.45 118.837ZM1.25197 104.963C1.25197 107.137 12.2405 102.452 13.3788 104.432C15.6561 108.393 9.3135 117.616 13.8651 117.615C13.8651 117.615 122.075 115.211 124.35 111.249C125.467 109.329 126.056 107.145 126.055 104.921C126.054 102.697 125.464 100.513 124.345 98.5938L74.5159 7.56759C73.4197 5.63827 71.8324 4.03687 69.9171 2.92774C68.0018 1.8186 65.8274 1.24168 63.617 1.25616C59.0674 1.25616 1.25197 102.79 1.25163 104.965L1.25197 104.963Z" fill="#3F3D56"/>
<path d="M66.2027 107.085C85.3503 107.085 100.872 91.483 100.872 72.2371C100.872 52.9912 85.3503 37.3893 66.2027 37.3893C47.0551 37.3893 31.5329 52.9912 31.5329 72.2371C31.5329 91.483 47.0551 107.085 66.2027 107.085Z" fill="#9360FF"/>
<path d="M63.4597 81.1842L63.096 50.3797H69.2805L68.8863 81.1842H63.4597ZM66.2185 94.0956C65.6797 94.1044 65.1449 94.0022 64.6469 93.7952C64.149 93.5882 63.6985 93.2808 63.3233 92.892C62.9439 92.5126 62.6429 92.0615 62.4374 91.5647C62.232 91.0679 62.1263 90.5352 62.1263 89.9972C62.1263 89.4592 62.232 88.9265 62.4374 88.4298C62.6429 87.933 62.9439 87.4819 63.3233 87.1024C63.6985 86.7136 64.149 86.4063 64.6469 86.1993C65.1449 85.9923 65.6797 85.89 66.2185 85.8988C66.7551 85.8892 67.288 85.9911 67.7836 86.1982C68.2792 86.4053 68.7269 86.7132 69.0985 87.1024C69.4813 87.4817 69.7835 87.9352 69.9868 88.4355C70.19 88.9357 70.29 89.4722 70.2808 90.0124C70.288 90.5479 70.187 91.0793 69.9837 91.5744C69.7805 92.0694 69.4793 92.5178 69.0985 92.8924C68.7269 93.2816 68.2792 93.5894 67.7836 93.7966C67.288 94.0037 66.7551 94.1056 66.2185 94.0959V94.0956Z" fill="white"/>
</g>
<defs>
<clipPath id="clip0_673_4620">
<rect width="260" height="270" fill="white"/>
</clipPath>
</defs>
</svg>
