<svg width="160" height="270" viewBox="0 0 160 270" fill="none" xmlns="http://www.w3.org/2000/svg">
<g clip-path="url(#clip0_673_4687)">
<path d="M83.9866 73.575H32.829C29.855 73.575 27.444 75.9927 27.444 78.975V86.4C27.444 89.3823 29.855 91.8 32.829 91.8H83.9866C86.9606 91.8 89.3716 89.3823 89.3716 86.4V78.975C89.3716 75.9927 86.9606 73.575 83.9866 73.575Z" fill="#9360FF"/>
<path d="M137.639 258.437C137.653 258.442 137.666 258.449 137.678 258.457C137.207 257.433 136.765 256.398 136.363 255.345C136.316 255.222 136.272 255.094 136.224 254.971C136.228 255.003 136.228 255.035 136.232 255.072C136.244 255.272 136.26 255.471 136.276 255.674C136.3 255.988 136.32 256.307 136.323 256.626C136.327 256.727 136.327 256.82 136.327 256.921C136.326 257.309 136.286 257.696 136.208 258.076H136.224C136.325 258.084 136.415 258.088 136.51 258.104C136.884 258.154 137.249 258.258 137.593 258.414C137.608 258.42 137.623 258.428 137.637 258.438L137.639 258.437Z" fill="url(#paint0_linear_673_4687)"/>
<path d="M130.116 101.969C130.074 103.632 129.51 105.242 129.424 106.904C134.309 107.148 139.128 104.771 143.966 105.5C142.612 104.622 141.891 103.041 141.466 101.483C140.924 99.4748 140.762 97.3821 140.989 95.3138C141.002 95.1989 141.022 95.0849 141.049 94.9726C141.229 94.1582 141.693 93.0073 141.569 92.3678C141.405 91.5207 140.609 91.6884 139.892 91.737C137.705 91.904 135.529 92.1856 133.372 92.5807C132.81 92.6779 127.335 94.0492 127.253 93.9061C128.213 95.4498 129.007 97.0909 129.623 98.8019C129.964 99.8217 130.131 100.892 130.116 101.968L130.116 101.969Z" fill="#9F616A"/>
<path d="M81.803 96.8291C82.2227 97.4033 82.7254 97.9116 83.2946 98.3371C83.6648 98.6408 84.0448 98.9527 84.443 99.2325C85.1517 99.781 85.9961 100.125 86.8854 100.229C88.0492 100.306 90.5203 99.6213 91.2419 98.6229C91.5467 98.1207 91.6919 97.5373 91.6582 96.9503C91.646 96.1542 91.5106 95.3649 91.257 94.6104C90.8034 93.3826 90.1681 92.2303 89.3723 91.1922C88.5308 90.0194 87.5932 88.8635 86.3432 88.1547C85.9261 87.9308 85.4958 87.7323 85.0548 87.5604C84.2952 87.2502 83.5403 86.936 82.779 86.6248C82.6498 86.5615 82.5095 86.5243 82.366 86.5151C81.7552 86.5212 81.6427 87.4564 81.9894 87.9623C82.6821 88.9799 84.2407 89.2631 84.6782 90.418C84.3096 90.4293 83.954 90.5575 83.6625 90.7841C83.371 91.0107 83.1585 91.324 83.0556 91.6792C83.0385 91.8679 82.9618 92.0461 82.8369 92.1882C82.6349 92.3495 82.3233 92.2584 82.0964 92.3802C81.6926 92.5965 81.8686 93.1997 81.8272 93.6566C81.7279 94.0524 81.5884 94.4369 81.4109 94.8041C81.325 95.1496 81.3156 95.5097 81.3833 95.8591C81.451 96.2086 81.5941 96.539 81.8026 96.8271L81.803 96.8291Z" fill="#9F616A"/>
<path d="M149.146 263.61C148.77 263.233 148.156 263.298 147.632 263.381C144.813 263.828 141.964 264.059 139.11 264.072C138.753 262.322 139.79 260.62 140.124 258.868C140.172 258.415 140.286 257.971 140.461 257.551C140.863 256.778 141.769 256.424 142.62 256.244C144.156 255.92 146.558 255.347 147.414 256.904C148.443 258.773 148.772 261.533 149.146 263.61Z" fill="#9F616A"/>
<path d="M117.926 257.003C119.083 257.795 120.52 258.042 121.912 258.222C123.304 258.401 124.737 258.536 125.998 259.157C127.086 259.697 128.003 260.58 129.155 260.967C130.226 261.262 131.354 261.279 132.433 261.019C133.728 260.775 135.107 260.303 135.806 259.181C136.428 258.185 136.362 256.92 136.277 255.748C136.177 254.423 136.078 253.095 135.982 251.765C135.987 251.428 135.902 251.096 135.736 250.803C134.801 249.435 132.526 251.376 131.306 251.372C129.377 251.369 127.305 250.321 125.914 249.039C125.792 248.911 125.65 248.804 125.494 248.722C124.944 248.475 124.394 248.932 123.905 249.331C123.851 249.377 123.796 249.422 123.741 249.466C122.614 250.362 121.101 250.546 119.71 250.907C118.318 251.268 116.824 252.001 116.392 253.378C116.364 253.465 116.341 253.553 116.325 253.643C116.071 254.91 116.84 256.26 117.926 257.003Z" fill="#090814"/>
<path d="M148.617 170.652C149.518 175.089 148.664 179.704 146.233 183.521C145.57 184.551 144.794 185.517 144.296 186.636C143.969 187.435 143.716 188.261 143.539 189.106L141.392 198.018C140.812 200.423 140.229 202.878 140.403 205.346C140.524 207.068 140.957 209.002 139.9 210.362C139.645 210.621 139.429 210.917 139.26 211.239C139.155 211.618 139.151 212.017 139.25 212.398C140.336 218.868 141.142 225.633 139.18 231.893C137.4 237.567 137.299 243.854 135.787 249.605C135.6 250.317 135.385 251.068 134.848 251.569C134.443 251.91 133.958 252.141 133.439 252.24C131.211 252.772 128.857 252.149 126.779 251.183C125.319 250.505 123.746 249.314 123.871 247.705C123.931 246.939 124.376 246.27 124.679 245.563C125.272 244.179 125.32 242.633 125.48 241.136C125.884 237.374 127.039 233.744 127.913 230.066C128.787 226.387 129.38 222.541 128.641 218.833C127.13 211.161 124.71 203.698 121.434 196.601C121.292 196.224 121.066 195.883 120.774 195.606C120.445 195.418 120.133 195.204 119.84 194.964C119.613 194.612 119.467 194.214 119.412 193.799C119.087 192.625 118.121 191.759 117.475 190.728C115.841 188.125 116.358 184.788 116.419 181.712C116.478 178.721 116.049 175.703 116.537 172.752C117.026 169.802 118.712 166.785 121.549 165.86C122.955 165.402 124.474 165.506 125.944 165.652C133.734 166.426 141.307 167.845 148.617 170.652Z" fill="#090814"/>
<path d="M116.885 189.41C116.908 190.572 117.039 191.73 117.277 192.868C118.65 200.591 120.113 208.298 121.667 215.989C121.803 216.656 121.936 217.323 122.116 217.978C122.695 220.118 123.708 222.116 125.091 223.846C131.565 231.937 132.125 243.689 135.637 253.447C135.872 254.106 136.11 254.769 136.362 255.421C136.997 257.075 137.72 258.693 138.528 260.269C138.623 260.499 138.777 260.699 138.975 260.848C139.193 260.958 139.437 261.006 139.68 260.985C142.84 261.004 145.962 260.292 148.803 258.905C149.209 258.755 149.551 258.47 149.773 258.097C149.882 257.8 149.917 257.48 149.876 257.166C149.779 255.232 149.66 253.227 148.74 251.527C148.129 250.509 147.371 249.588 146.491 248.793C146.218 242.721 145.619 236.637 144.287 230.709C143.603 227.677 142.759 224.612 141.003 222.05C139.709 220.158 137.852 218.291 138.08 216.009C138.181 215.007 138.599 213.76 137.785 213.17C137.43 212.911 136.904 212.877 136.663 212.51C136.567 212.337 136.512 212.142 136.505 211.944C136.338 210.378 136.435 208.794 136.794 207.261C137.09 206.259 137.322 205.239 137.49 204.208C137.593 203.166 137.417 202.039 136.724 201.26C136.682 199.176 136.739 197.013 136.697 194.933C136.615 193.747 136.713 192.555 136.988 191.399C137.146 190.853 137.386 190.332 137.507 189.775C137.942 187.773 136.857 185.375 138.147 183.788C138.685 183.129 139.514 182.801 140.219 182.325C141.626 181.384 142.549 179.843 143.063 178.225C143.518 176.587 143.789 174.903 143.868 173.204C143.91 172.843 143.914 172.479 143.88 172.118C143.858 171.931 143.809 171.748 143.735 171.575C143.333 170.67 142.254 170.32 141.295 170.09C135.193 168.623 128.939 167.889 122.665 167.906C120.342 166.321 119.037 166.888 118.054 168.565C117.51 169.59 117.07 170.666 116.741 171.779C116.292 173.141 116.264 180.764 115.827 182.132C115.263 183.911 116.906 187.543 116.885 189.41Z" fill="#090814"/>
<path d="M132.312 98.8228C138.543 98.8228 143.594 93.7576 143.594 87.5094C143.594 81.2613 138.543 76.1961 132.312 76.1961C126.081 76.1961 121.03 81.2613 121.03 87.5094C121.03 93.7576 126.081 98.8228 132.312 98.8228Z" fill="#9F616A"/>
<path d="M125.746 106.03C126.238 106.6 126.898 107.229 127.628 107.046C127.891 106.955 128.139 106.823 128.36 106.653C129.661 105.812 131.256 105.615 132.787 105.384C135.871 104.918 138.917 104.231 141.903 103.328C142.77 103.012 143.679 102.826 144.6 102.778C146.512 102.788 148.206 104.062 149.405 105.557C150.603 107.051 151.452 108.8 152.628 110.312C153.466 111.389 154.464 112.339 155.246 113.457C157.221 116.281 149.221 149.86 149.328 150.426C150.077 155.769 150.472 170.642 150.14 173.382C146.61 172.015 142.912 171.134 139.146 170.763C136.723 170.525 134.252 170.493 131.913 169.812C130.453 169.386 129.067 168.711 127.584 168.371C126.382 168.135 125.16 168.009 123.934 167.997C121.23 167.888 118.508 167.78 115.832 168.179C115.615 168.213 115.351 168.229 115.222 168.052C115.164 167.956 115.136 167.845 115.141 167.732C115.1 166.726 115.339 165.729 115.833 164.853C116.174 164.249 116.648 163.658 116.635 162.965C116.61 162.641 117.308 120.362 118.309 118.559C119.473 116.461 120.655 114.32 121.125 111.966C121.434 110.407 121.425 108.802 121.648 107.229C121.672 106.829 121.81 106.445 122.047 106.123C122.429 105.688 123.076 105.626 123.653 105.644C124.366 105.668 125.071 105.798 125.746 106.032L125.746 106.03Z" fill="#E6E6E6"/>
<path d="M121.978 123.7C121.292 124.559 120.576 125.441 119.602 125.949C118.48 126.531 117.161 126.546 115.9 126.519C110.701 126.407 105.523 125.836 100.424 124.813C99.8441 124.711 93.617 120.835 92.3408 119.203C90.8222 117.234 87.0032 104.593 86.8686 103.873C86.6343 102.631 86.0063 101.499 85.0781 100.644C84.8814 100.503 84.7329 100.305 84.6526 100.077C84.6275 99.8862 84.6629 99.6926 84.7536 99.5234C85.2729 98.3631 86.461 97.6149 87.6932 97.3128C88.9407 97.0716 90.2175 97.0207 91.4802 97.162C91.901 97.2418 92.3155 97.3523 92.7204 97.4924C93.7213 100.212 100.697 112.802 101.06 112.783C102.057 112.845 104.21 113.21 105.114 112.783C106.14 112.301 109.505 112.282 109.685 112.183C110.092 111.947 113.751 110.356 114.228 110.407C113.928 110.137 120.857 108.39 121.334 107.556C121.503 107.261 121.536 106.858 121.825 106.679C122.02 106.583 122.242 106.557 122.454 106.606C123.116 106.694 123.759 106.89 124.358 107.185C125.334 111.017 124.822 114.996 124.078 118.881C123.806 120.642 123.083 122.303 121.98 123.702L121.978 123.7Z" fill="#E6E6E6"/>
<path d="M127.651 103.189C128.863 102.433 130.286 102.113 131.69 101.856C132.532 101.664 133.398 101.602 134.259 101.671C135.053 101.77 135.815 102.078 136.615 102.122C137.737 102.185 138.812 101.729 139.895 101.432C140.979 101.134 142.23 101.021 143.144 101.678C143.338 101.87 143.584 102.001 143.851 102.055C144.128 102.021 144.385 101.894 144.582 101.696C145.349 101.145 146.281 100.872 147.223 100.921C148.166 100.971 149.064 101.341 149.769 101.97C151.838 103.915 151.604 107.715 154.028 109.19C154.697 109.595 155.551 109.811 155.941 110.491C156.036 110.707 156.146 110.916 156.271 111.116C156.433 111.295 156.632 111.437 156.854 111.533C157.557 111.848 158.227 112.234 158.852 112.685C159.164 112.913 159.427 113.201 159.624 113.533C159.822 113.866 159.95 114.235 160.002 114.618C160.011 115.18 159.89 115.736 159.649 116.244C158.463 119.161 156.404 121.639 153.757 123.337C151.11 125.034 148.003 125.867 144.864 125.723C144.307 125.751 143.758 125.58 143.316 125.238C143.083 124.974 142.9 124.671 142.774 124.341C141.635 121.945 139.494 120.176 138.135 117.898C137.325 116.541 136.805 115.022 135.962 113.685C134.683 111.657 132.739 110.16 130.836 108.706C129.764 107.887 128.569 107.027 127.221 107.084C126.02 107.136 125.145 107.201 125.586 105.723C125.952 104.658 126.686 103.76 127.654 103.189H127.651Z" fill="#E6E6E6"/>
<path opacity="0.05" d="M127.651 103.189C128.863 102.433 130.286 102.113 131.69 101.856C132.532 101.664 133.398 101.602 134.259 101.671C135.053 101.77 135.815 102.078 136.615 102.122C137.737 102.185 138.812 101.729 139.895 101.432C140.979 101.134 142.23 101.021 143.144 101.678C143.338 101.87 143.584 102.001 143.851 102.055C144.128 102.021 144.385 101.894 144.582 101.696C145.349 101.145 146.281 100.872 147.223 100.921C148.166 100.971 149.064 101.341 149.769 101.97C151.838 103.915 151.604 107.715 154.028 109.19C154.697 109.595 155.551 109.811 155.941 110.491C156.036 110.707 156.146 110.916 156.271 111.116C156.433 111.295 156.632 111.437 156.854 111.533C157.557 111.848 158.227 112.234 158.852 112.685C159.164 112.913 159.427 113.201 159.624 113.533C159.822 113.866 159.95 114.235 160.002 114.618C160.011 115.18 159.89 115.736 159.649 116.244C158.463 119.161 156.404 121.639 153.757 123.337C151.11 125.034 148.003 125.867 144.864 125.723C144.307 125.751 143.758 125.58 143.316 125.238C143.083 124.974 142.9 124.671 142.774 124.341C141.635 121.945 139.494 120.176 138.135 117.898C137.325 116.541 136.805 115.022 135.962 113.685C134.683 111.657 132.739 110.16 130.836 108.706C129.764 107.887 128.569 107.027 127.221 107.084C126.02 107.136 125.145 107.201 125.586 105.723C125.952 104.658 126.686 103.76 127.654 103.189H127.651Z" fill="black"/>
<path d="M121.78 267.161C122.597 267.925 123.721 268.261 124.812 268.498C127.303 268.985 129.824 269.297 132.358 269.433C133.179 269.494 134.002 269.558 134.822 269.622C137.228 269.805 139.638 269.991 142.055 270C145.036 270.01 148.013 269.752 150.948 269.229C151.065 269.24 151.184 269.224 151.294 269.181C151.404 269.138 151.503 269.07 151.582 268.982C151.661 268.894 151.718 268.789 151.749 268.674C151.78 268.56 151.784 268.44 151.76 268.324C151.708 265.31 149.699 262.969 149.025 260.031C148.745 258.825 148.229 260.872 148.132 260.984C147.534 261.667 147.081 261.98 146.173 262.03C143.69 262.168 140.91 260.653 138.94 259.306C138.518 258.991 138.069 258.713 137.6 258.475C137.256 258.32 136.891 258.215 136.517 258.165C135.24 258.046 133.956 258.307 132.826 258.914C131.345 259.651 130.041 260.712 128.575 261.47C127.382 262.085 126.094 262.494 124.766 262.68C123.423 262.865 121.819 262.954 121.131 264.12C121.13 264.122 121.129 264.123 121.128 264.125C121.128 264.126 121.128 264.128 121.128 264.13C120.555 265.095 120.966 266.399 121.78 267.161Z" fill="#090814"/>
<path opacity="0.1" d="M145.106 89.0802C144.868 89.2286 144.603 89.3276 144.326 89.3711C143.977 89.4731 143.61 89.498 143.251 89.4441C142.891 89.3901 142.548 89.2586 142.244 89.0586L145.106 89.0802Z" fill="black"/>
<path d="M121.232 75.9137C122.507 74.8891 124.073 74.2962 125.705 74.2201C127.303 74.0769 129.026 74.1819 130.392 73.3558C131.947 72.399 132.833 70.3258 134.629 70.0617C135.404 70.0025 136.179 70.1613 136.869 70.52C139.541 71.7018 141.804 73.6529 143.369 76.1257C143.724 76.8232 144.21 77.4459 144.8 77.9599C145.164 78.1703 145.516 78.3998 145.856 78.6477C146.217 79.0134 146.482 79.4638 146.626 79.958C147.568 82.6484 147.501 85.591 146.436 88.2353C145.804 89.7964 144.838 91.1957 144.176 92.7634C143.514 94.3311 140.997 97.1563 140.59 96.3275C140.183 95.4986 139.629 94.7048 139.463 93.7854C139.142 91.9776 139.839 90.2851 138.629 88.9082C137.88 88.0567 136.421 87.3677 135.732 88.2632C135.46 88.6094 135.416 89.0839 135.174 89.4489C134.698 90.1594 133.576 90.1746 132.898 89.6494C132.252 89.0742 131.847 88.2761 131.762 87.4143C131.12 83.5482 129.534 80.9693 125.357 82.0749C123.801 82.489 122.005 82.6763 120.705 81.4783C118.99 79.8999 119.699 77.2815 121.232 75.9137Z" fill="#090814"/>
<path d="M58.2816 54.6072C68.6296 54.6072 77.0184 46.1951 77.0184 35.8182C77.0184 25.4413 68.6296 17.0292 58.2816 17.0292C47.9335 17.0292 39.5448 25.4413 39.5448 35.8182C39.5448 46.1951 47.9335 54.6072 58.2816 54.6072Z" fill="white"/>
<path d="M58.2816 54.7945C54.5388 54.7945 50.8801 53.6815 47.768 51.5963C44.656 49.5112 42.2305 46.5474 40.7982 43.0799C39.3659 39.6124 38.9911 35.7968 39.7213 32.1157C40.4515 28.4346 42.2538 25.0533 44.9004 22.3994C47.5469 19.7455 50.9188 17.9381 54.5897 17.2059C58.2606 16.4737 62.0656 16.8495 65.5235 18.2858C68.9814 19.7221 71.9369 22.1543 74.0163 25.275C76.0956 28.3957 77.2055 32.0646 77.2055 35.8179C77.1999 40.849 75.2043 45.6726 71.6566 49.2301C68.1089 52.7877 63.2988 54.7888 58.2816 54.7945ZM58.2816 17.2166C54.6128 17.2166 51.0264 18.3075 47.976 20.3514C44.9255 22.3954 42.5479 25.3005 41.1439 28.6995C39.74 32.0984 39.3726 35.8385 40.0884 39.4468C40.8041 43.0551 42.5708 46.3695 45.165 48.971C47.7592 51.5724 51.0644 53.344 54.6627 54.0618C58.261 54.7795 61.9907 54.4111 65.3802 53.0032C68.7698 51.5954 71.6668 49.2112 73.7051 46.1522C75.7433 43.0932 76.8313 39.4969 76.8313 35.8179C76.8257 30.8862 74.8695 26.1582 71.392 22.671C67.9145 19.1838 63.1995 17.2222 58.2816 17.2166Z" fill="#090814"/>
<path d="M55.7254 45.5966C55.4018 45.5966 55.0827 45.521 54.7933 45.3759C54.5039 45.2307 54.2521 45.0199 54.0581 44.7603L48.9464 37.9256C48.6147 37.4821 48.4723 36.9247 48.5505 36.376C48.6286 35.8273 48.921 35.3322 49.3632 34.9996C49.8054 34.667 50.3612 34.5242 50.9084 34.6026C51.4556 34.681 51.9494 34.9742 52.281 35.4176L55.6251 39.8888L64.2145 26.9693C64.3647 26.7373 64.5594 26.5374 64.7872 26.3814C65.015 26.2253 65.2714 26.1162 65.5416 26.0603C65.8117 26.0044 66.0903 26.0028 66.3611 26.0556C66.6319 26.1085 66.8895 26.2147 67.119 26.3682C67.3486 26.5216 67.5454 26.7193 67.6982 26.9496C67.851 27.1799 67.9567 27.4384 68.0092 27.71C68.0616 27.9815 68.0598 28.2609 68.0037 28.5317C67.9477 28.8026 67.8386 29.0597 67.6828 29.2879L57.4594 44.6658C57.2743 44.9438 57.0256 45.1734 56.7339 45.3352C56.4422 45.497 56.1162 45.5864 55.783 45.5959L55.7254 45.5966Z" fill="#9360FF"/>
<path d="M61.0756 71.245C59.4942 70.3354 58.2438 68.943 57.5069 67.2709C56.9604 66.0003 56.733 64.6148 56.8445 63.2356C56.9561 61.8564 57.4032 60.5257 58.1468 59.3601C58.2744 59.1612 58.6094 59.3213 58.4803 59.5246C57.5691 60.9471 57.1187 62.6172 57.1907 64.3063C57.2599 65.6591 57.6668 66.9728 58.3739 68.127C59.081 69.2812 60.0658 70.2389 61.2379 70.9123C61.4452 71.0283 61.2836 71.3637 61.0756 71.245Z" fill="#090814"/>
<path d="M55.7743 60.0678L58.4578 57.8058C58.4835 57.7878 58.513 57.7759 58.544 57.7711C58.575 57.7663 58.6066 57.7686 58.6366 57.778C58.6665 57.7874 58.6939 57.8035 58.7167 57.8251C58.7394 57.8467 58.7569 57.8733 58.7679 57.9028L59.8251 61.626C59.8966 61.878 59.5134 62.0201 59.4412 61.766L58.3834 58.0423L58.6935 58.1393L56.0109 60.4019C55.8105 60.572 55.5742 60.2364 55.7743 60.0678Z" fill="#090814"/>
<path d="M97.0757 30.9665C96.914 29.8517 95.4874 29.137 93.8894 29.3701C92.2914 29.6032 91.127 30.6958 91.2887 31.8106C91.4504 32.9254 92.8769 33.6401 94.475 33.407C96.073 33.1739 97.2374 32.0813 97.0757 30.9665Z" fill="#D6D6E3"/>
<path d="M111.792 17.371C111.131 16.4601 109.537 16.4931 108.232 17.4449C106.926 18.3967 106.402 19.9067 107.063 20.8177C107.723 21.7286 109.317 21.6955 110.623 20.7438C111.929 19.792 112.452 18.282 111.792 17.371Z" fill="#9360FF"/>
<path d="M116.507 3.98775C116.499 2.96484 115.917 2.13996 115.208 2.14534C114.498 2.15072 113.929 2.98432 113.937 4.00723C113.945 5.03014 114.526 5.85502 115.236 5.84964C115.945 5.84426 116.514 5.01066 116.507 3.98775Z" fill="#9360FF"/>
<path d="M116.549 25.4423C116.541 24.4194 115.96 23.5945 115.25 23.5999C114.54 23.6052 113.971 24.4388 113.979 25.4618C113.987 26.4847 114.568 27.3095 115.278 27.3042C115.987 27.2988 116.557 26.4652 116.549 25.4423Z" fill="#D6D6E3"/>
<path d="M103.755 33.947C103.748 32.9241 103.166 32.0992 102.456 32.1046C101.747 32.1099 101.178 32.9435 101.185 33.9665C101.193 34.9894 101.775 35.8142 102.484 35.8089C103.194 35.8035 103.763 34.9699 103.755 33.947Z" fill="#9360FF"/>
<path d="M105.952 5.43629C105.79 4.32154 104.364 3.6068 102.766 3.83989C101.168 4.07298 100.004 5.16562 100.165 6.28038C100.327 7.39514 101.753 8.10987 103.351 7.87679C104.949 7.6437 106.114 6.55105 105.952 5.43629Z" fill="#F2F2F2"/>
<path d="M102.457 17.2235C102.449 16.2006 101.867 15.3757 101.158 15.3811C100.448 15.3865 99.879 16.2201 99.8867 17.243C99.8944 18.2659 100.476 19.0908 101.186 19.0854C101.895 19.08 102.464 18.2464 102.457 17.2235Z" fill="#F2F2F2"/>
<path d="M0.290377 4.00804C0.12868 5.1228 1.29306 6.21545 2.89108 6.44853C4.48911 6.68162 5.91565 5.96689 6.07735 4.85213C6.23904 3.73737 5.07467 2.64472 3.47664 2.41164C1.87861 2.17855 0.452073 2.89328 0.290377 4.00804Z" fill="#D6D6E3"/>
<path d="M16.0669 14.9998C15.4066 15.9107 15.93 17.4208 17.2359 18.3726C18.5417 19.3243 20.1356 19.3574 20.7959 18.4465C21.4561 17.5355 20.9328 16.0255 19.6269 15.0737C18.321 14.1219 16.7272 14.0888 16.0669 14.9998Z" fill="#9360FF"/>
<path d="M22.9411 31.8115C22.9333 32.8344 23.5024 33.668 24.2121 33.6734C24.9217 33.6788 25.5033 32.8539 25.511 31.831C25.5187 30.8081 24.9496 29.9745 24.24 29.9691C23.5303 29.9637 22.9488 30.7886 22.9411 31.8115Z" fill="#9360FF"/>
<path d="M22.9828 10.3569C22.9751 11.3798 23.5441 12.2134 24.2538 12.2188C24.9635 12.2242 25.545 11.3993 25.5527 10.3764C25.5604 9.35347 24.9914 8.51987 24.2817 8.51449C23.572 8.50911 22.9905 9.33399 22.9828 10.3569Z" fill="#F2F2F2"/>
<path d="M10.1897 1.85226C10.182 2.87518 10.751 3.70877 11.4607 3.71415C12.1704 3.71953 12.7519 2.89465 12.7596 1.87174C12.7673 0.848827 12.1983 0.0152324 11.4886 0.00985426C10.779 0.0044761 10.1974 0.829351 10.1897 1.85226Z" fill="#9360FF"/>
<path d="M9.1669 29.5379C9.0052 30.6526 10.1696 31.7453 11.7676 31.9784C13.3656 32.2115 14.7922 31.4967 14.9539 30.382C15.1156 29.2672 13.9512 28.1746 12.3532 27.9415C10.7551 27.7084 9.32859 28.4231 9.1669 29.5379Z" fill="#D6D6E3"/>
<path d="M8.89056 18.5757C8.88285 19.5986 9.4519 20.4322 10.1616 20.4376C10.8712 20.443 11.4528 19.6181 11.4605 18.5952C11.4682 17.5723 10.8991 16.7387 10.1895 16.7333C9.47982 16.7279 8.89827 17.5528 8.89056 18.5757Z" fill="#F2F2F2"/>
</g>
<defs>
<linearGradient id="paint0_linear_673_4687" x1="-77.8283" y1="258.457" x2="-77.8283" y2="254.971" gradientUnits="userSpaceOnUse">
<stop stop-color="#808080" stop-opacity="0.251"/>
<stop offset="0.535" stop-color="#808080" stop-opacity="0.122"/>
<stop offset="1" stop-color="#808080" stop-opacity="0.102"/>
</linearGradient>
<clipPath id="clip0_673_4687">
<rect width="160" height="270" fill="white"/>
</clipPath>
</defs>
</svg>
