<svg width="30" height="30" viewBox="0 0 30 30" fill="none" xmlns="http://www.w3.org/2000/svg">
<path d="M18.1176 4.74658C18.1685 4.74564 18.2204 4.76288 18.266 4.79541L18.3226 4.84424L25.1761 11.6978C25.2174 11.7399 25.2421 11.7952 25.2465 11.854C25.2508 11.9135 25.234 11.973 25.1986 12.021C25.1631 12.0691 25.1114 12.1034 25.0531 12.1167C24.995 12.1299 24.934 12.1219 24.8812 12.0942L24.2289 11.7505L23.7084 12.271L19.7426 16.2349L19.5902 16.3882L19.514 16.5913L17.7338 21.3374V21.3384C17.7249 21.3619 17.7111 21.383 17.6957 21.4028L17.6469 21.4595L15.8031 23.3022C15.76 23.3451 15.7026 23.3707 15.642 23.3745C15.5862 23.3779 15.5315 23.3621 15.4857 23.3306L15.4281 23.2808L11.9574 19.811L11.2504 19.105L10.5433 19.811L5.8031 24.5503C5.75815 24.5951 5.69758 24.6216 5.63416 24.6235C5.57081 24.6255 5.5089 24.6029 5.4613 24.561C5.41367 24.519 5.38335 24.4602 5.37732 24.397C5.37179 24.3389 5.38679 24.2809 5.41931 24.2329L5.46912 24.1763L10.1888 19.4565L10.8949 18.7495L10.1888 18.0425L6.69861 14.5513L6.66931 14.5171C6.64362 14.4799 6.62824 14.4358 6.62537 14.3901C6.6219 14.3337 6.63811 14.2781 6.67029 14.2319L6.71912 14.1763L8.57361 12.3228L8.57458 12.3218C8.59128 12.305 8.61054 12.2912 8.63123 12.2798L8.6781 12.2593L13.4076 10.4849L13.6097 10.4087L13.7631 10.2554L17.7269 6.29346L18.2513 5.76904L17.9017 5.11475C17.8748 5.06432 17.8656 5.00587 17.8763 4.94971C17.8872 4.89342 17.9175 4.84209 17.9613 4.80518C18.0051 4.76833 18.0603 4.74765 18.1176 4.74658Z" stroke="#0D0028" stroke-width="2"/>
</svg>
