<svg width="30" height="30" viewBox="0 0 30 30" fill="none" xmlns="http://www.w3.org/2000/svg">
<path d="M18.8913 4.0125L19.0088 4.11625L25.8838 10.9912C26.0945 11.2031 26.2223 11.4834 26.2442 11.7814C26.266 12.0794 26.1804 12.3754 26.0028 12.6157C25.8252 12.856 25.5674 13.0247 25.2762 13.0913C24.9849 13.1579 24.6794 13.118 24.415 12.9787L20.45 16.9425L18.67 21.6887C18.6231 21.814 18.5564 21.9309 18.4725 22.035L18.385 22.135L16.51 24.01C16.2946 24.225 16.0082 24.3541 15.7044 24.373C15.4006 24.3918 15.1004 24.2992 14.86 24.1125L14.7413 24.0087L11.25 20.5187L6.50876 25.2587C6.28381 25.4829 5.98197 25.6131 5.66453 25.6228C5.34709 25.6325 5.03787 25.521 4.79966 25.3109C4.56145 25.1009 4.41213 24.8081 4.38201 24.4919C4.35189 24.1757 4.44324 23.86 4.63751 23.6087L4.74126 23.4912L9.48126 18.75L5.99126 15.2587C5.77604 15.0435 5.64675 14.7571 5.62765 14.4533C5.60855 14.1496 5.70094 13.8493 5.88751 13.6087L5.99126 13.4912L7.86626 11.6162C7.96057 11.5216 8.06946 11.4427 8.18876 11.3825L8.31126 11.33L13.0563 9.54875L17.02 5.58625C16.8848 5.33353 16.8406 5.04205 16.8947 4.76063C16.9489 4.4792 17.0981 4.22491 17.3173 4.04037C17.5366 3.85582 17.8126 3.75222 18.0991 3.74692C18.3857 3.74162 18.6653 3.83619 18.8913 4.0125Z" fill="#0D0028"/>
</svg>
