<svg width="25" height="24" viewBox="0 0 25 24" fill="none" xmlns="http://www.w3.org/2000/svg">
<path d="M8.03704 10.5062L12.9259 7.98765L16.1852 6.30864M8.03704 13.716L15.8148 18.281M16.1815 20.0406C15.9424 19.5439 15.8148 18.9954 15.8148 18.4337C15.8148 17.4514 16.205 16.5094 16.8996 15.8148C17.5942 15.1202 18.5362 14.73 19.5185 14.73C20.5008 14.73 21.4429 15.1202 22.1374 15.8148C22.832 16.5094 23.2222 17.4514 23.2222 18.4337C23.2222 19.416 22.832 20.3581 22.1374 21.0526C21.4429 21.7472 20.5008 22.1374 19.5185 22.1374C18.5362 22.1374 17.5942 21.7472 16.8996 21.0526C16.6022 20.7552 16.3606 20.4124 16.1815 20.0406ZM16.1815 20.0406L16.1852 19.8889M1 12.1111C1 13.0934 1.39021 14.0354 2.08479 14.73C2.77937 15.4246 3.72142 15.8148 4.7037 15.8148C5.68599 15.8148 6.62804 15.4246 7.32262 14.73C8.0172 14.0354 8.40741 13.0934 8.40741 12.1111C8.40741 11.1288 8.0172 10.1868 7.32262 9.4922C6.62804 8.79762 5.68599 8.40741 4.7037 8.40741C3.72142 8.40741 2.77937 8.79762 2.08479 9.4922C1.39021 10.1868 1 11.1288 1 12.1111ZM15.8148 4.7037C15.8148 5.68599 16.205 6.62804 16.8996 7.32262C17.5942 8.0172 18.5362 8.40741 19.5185 8.40741C20.5008 8.40741 21.4429 8.0172 22.1374 7.32262C22.832 6.62804 23.2222 5.68599 23.2222 4.7037C23.2222 3.72142 22.832 2.77937 22.1374 2.08479C21.4429 1.39021 20.5008 1 19.5185 1C18.5362 1 17.5942 1.39021 16.8996 2.08479C16.205 2.77937 15.8148 3.72142 15.8148 4.7037Z" stroke="black" stroke-width="2" stroke-linecap="round" stroke-linejoin="round"/>
</svg>
